<svg width="207" height="16" viewBox="0 0 207 16" fill="none" xmlns="http://www.w3.org/2000/svg">
<path d="M91.3767 6.84992C91.4084 5.49131 90.7933 4.43602 89.2967 4.43602C88.0095 4.43602 87.2485 5.52291 87.2485 6.84992H91.3767ZM87.2485 7.92417C87.1344 9.35229 87.7178 10.8246 89.2967 10.8246C90.5016 10.8246 91.0976 10.357 91.2815 9.16904H92.9049C92.6576 11.0142 91.2308 11.9368 89.2777 11.9368C86.6588 11.9368 85.6188 10.0916 85.6188 7.69036C85.6188 5.2891 86.8237 3.31754 89.4045 3.31754C91.8459 3.36809 93 4.90363 93 7.15956V7.91785H87.2422L87.2485 7.92417ZM78.8084 4.76461H78.8401C79.3601 3.74723 80.4952 3.32385 81.3132 3.32385C81.8839 3.32385 84.4013 3.46919 84.4013 6.07899V11.703H82.8541V6.58452C82.8541 5.23855 82.2834 4.51185 80.9834 4.51185C80.9834 4.51185 80.1401 4.4613 79.4869 5.11216C79.2586 5.33965 78.8338 5.69352 78.8338 7.28594V11.7093H77.2865V3.57662H78.8021V4.77725L78.8084 4.76461ZM72.6067 7.74092C71.6619 7.79147 70.4127 8.12638 70.4127 9.31438C70.4127 10.3191 71.1102 10.8246 72.0233 10.8246C73.8432 10.8246 74.1857 9.25118 74.154 7.74724H72.6067V7.74092ZM74.154 6.67299C74.154 5.26382 74.0715 4.43602 72.4292 4.43602C71.6492 4.43602 70.9199 4.89099 70.9009 5.73144H69.2776C69.36 3.94945 70.7551 3.31754 72.3657 3.31754C73.9764 3.31754 75.6949 3.82306 75.6949 6.09163V9.97788C75.6949 10.3318 75.7139 11.0142 75.7583 11.6967H74.7183C74.5725 11.6967 74.2935 11.7788 74.2808 11.5829C74.2491 11.2101 74.211 10.8562 74.1983 10.4834H74.1666C73.6593 11.5008 72.7526 11.9431 71.6302 11.9431C70.2161 11.9431 68.783 11.2164 68.783 9.62401C68.783 7.33649 70.8185 6.67299 72.7525 6.67299H74.154ZM65.7011 0H67.5401V1.66825H65.7011V0ZM65.847 3.56398H67.3942V11.6967H65.847V3.56398ZM62.3784 0H63.9256V11.6967H62.3784V0ZM57.7556 7.74092C56.8108 7.79147 55.5616 8.12638 55.5616 9.31438C55.5616 10.3191 56.2591 10.8246 57.1722 10.8246C58.9922 10.8246 59.3346 9.25118 59.3029 7.74724H57.762L57.7556 7.74092ZM59.3029 6.67299C59.3029 5.26382 59.2204 4.43602 57.5781 4.43602C56.7981 4.43602 56.0625 4.89099 56.0498 5.73144H54.4265C54.5089 3.94945 55.904 3.31754 57.5147 3.31754C59.1253 3.31754 60.8501 3.82306 60.8501 6.09163V9.97788C60.8501 10.3318 60.8692 11.0142 60.9135 11.6967H59.8736C59.7277 11.6967 59.4487 11.7788 59.436 11.5829C59.4043 11.2101 59.3726 10.8562 59.3536 10.4834H59.3219C58.8209 11.5008 57.9078 11.9431 56.7854 11.9431C55.3713 11.9431 53.9382 11.2164 53.9382 9.62401C53.9382 7.33649 55.9737 6.67299 57.9078 6.67299H59.3092H59.3029ZM49.8101 3.56398V1.83254L51.351 1.34597V3.56398L53.2407 3.51343V4.66351L51.351 4.64455V9.89573C51.351 10.4771 51.8076 10.7551 52.3593 10.7551C52.6066 10.7551 52.93 10.7235 53.1709 10.654V11.8357C52.8158 11.8547 52.4734 11.9305 52.112 11.9305C51.7378 11.9305 51.4461 11.9115 51.072 11.8483C50.831 11.7978 50.4252 11.6714 50.1589 11.3112C49.8862 10.9194 49.8038 10.8878 49.8038 9.80095V4.63191L48.4087 4.65087V3.50079L49.8038 3.55134L49.8101 3.56398ZM45.6376 0H47.4765V1.66825H45.6376V0ZM45.7834 3.56398H47.3307V11.6967H45.7834V3.56398ZM30.1461 3.64613V2.42022L33.2215 1.2575V3.64613H35.0034V5.5861H33.2215V8.80253C33.2215 9.01106 33.0947 10.06 33.8049 10.06C34.2108 10.06 34.6293 10.06 34.9907 10.0095V11.8357C34.2932 11.9684 33.7922 12 33.3357 12C31.2431 12 29.9812 11.7093 30.1461 9.21959V5.5861H28.5608V3.64613H30.1461ZM25.0668 6.1485C25.0668 5.87678 25.016 5.63033 24.8702 5.47235C24.7053 5.29542 24.4517 5.18167 24.0268 5.18167C23.5702 5.18167 23.2976 5.44076 23.2976 5.90837C23.2976 6.50237 24.5468 6.47077 26.4745 7.07109C27.451 7.37441 28.1105 7.97472 28.1105 9.30174C28.1105 11.4502 26.0813 12 24.2234 12C22.2322 12 20.2855 11.5956 20.3045 9.1248H23.2215C23.1707 9.36493 23.2532 9.64297 23.4307 9.8515C23.6083 10.06 23.8683 10.2243 24.16 10.2243C24.7624 10.2243 25.1999 9.99684 25.1999 9.47867C25.1999 8.04423 20.3869 8.89731 20.3869 5.95893C20.3869 3.95577 22.5303 3.406 24.1473 3.406C26.075 3.406 27.8569 3.90521 27.99 6.1485H25.0731H25.0668ZM14.9716 10.218C16.2715 10.218 16.5442 8.84676 16.5442 7.69668C16.5442 6.5466 16.2715 5.17536 14.9716 5.17536C13.6716 5.17536 13.3989 6.5466 13.3989 7.69668C13.3989 8.84676 13.678 10.218 14.9716 10.218ZM19.7021 7.69668C19.7021 10.6856 17.5144 11.9937 14.9716 11.9937C12.4287 11.9937 10.241 10.6856 10.241 7.69668C10.241 4.70774 12.4287 3.39968 14.9716 3.39968C17.5144 3.39968 19.7021 4.70774 19.7021 7.69668ZM4.90809 5.32701C6.18901 5.27646 6.72801 4.6951 6.72801 3.84202C6.72801 2.98894 6.18901 2.40758 4.90809 2.35703H3.24035V5.32701H4.90809ZM0 11.7536V0.0884672H5.38368C8.2499 0.0884672 10.1332 1.01106 10.1332 3.8357C10.1332 6.66035 8.2499 7.58294 5.38368 7.58294H3.24669V11.7472H0.00634134L0 11.7536ZM41.5348 6.66667C41.5348 6.23065 41.408 5.79463 41.1607 5.4534C40.9197 5.11216 40.5646 4.90363 40.089 4.93523C39.0174 4.98578 38.7574 5.74408 38.6813 6.66667H41.5348ZM38.6179 8.30964C38.5989 9.35861 38.8779 10.2622 40.0256 10.2622C40.8817 10.2622 41.4207 9.85782 41.5348 9.09953H44.3884C44.2933 10.1485 43.6274 10.9068 42.8475 11.3618C42.1309 11.8167 41.2241 11.9937 40.2729 11.9937C37.0136 11.9937 35.72 10.6035 35.72 7.42496C35.72 4.85308 37.6477 3.406 40.0954 3.406C43.3992 3.406 44.4518 5.29542 44.4518 8.31596H38.6179V8.30964Z" fill="#0047BB"/>
<path d="M108.082 3.72247C108.034 3.2358 107.827 2.85772 107.462 2.58824C107.097 2.31875 106.602 2.18401 105.976 2.18401C105.551 2.18401 105.192 2.24434 104.899 2.36501C104.606 2.48165 104.382 2.64455 104.225 2.8537C104.073 3.06285 103.996 3.30015 103.996 3.56561C103.988 3.78683 104.035 3.97989 104.135 4.1448C104.239 4.3097 104.382 4.45249 104.562 4.57315C104.743 4.68979 104.951 4.79236 105.188 4.88084C105.424 4.96531 105.677 5.03771 105.946 5.09804L107.053 5.3635C107.591 5.48416 108.084 5.64505 108.533 5.84615C108.982 6.04726 109.372 6.29462 109.7 6.58824C110.029 6.88185 110.284 7.22775 110.465 7.62594C110.649 8.02413 110.743 8.48064 110.747 8.99548C110.743 9.75163 110.551 10.4072 110.17 10.9623C109.793 11.5133 109.247 11.9417 108.533 12.2474C107.823 12.549 106.967 12.6998 105.964 12.6998C104.969 12.6998 104.103 12.547 103.365 12.2413C102.631 11.9356 102.057 11.4832 101.644 10.8839C101.235 10.2805 101.02 9.53444 101 8.64555H103.521C103.549 9.05983 103.667 9.40573 103.876 9.68326C104.089 9.95676 104.371 10.1639 104.724 10.3047C105.081 10.4414 105.485 10.5098 105.934 10.5098C106.375 10.5098 106.758 10.4455 107.083 10.3167C107.412 10.188 107.667 10.0091 107.847 9.77979C108.028 9.55053 108.118 9.28708 108.118 8.98944C108.118 8.71192 108.036 8.47863 107.871 8.28959C107.711 8.10055 107.474 7.93967 107.161 7.80694C106.852 7.67421 106.473 7.55355 106.024 7.44495L104.682 7.10709C103.643 6.8537 102.823 6.45752 102.221 5.91855C101.62 5.37959 101.321 4.65359 101.325 3.74057C101.321 2.99246 101.519 2.33886 101.921 1.77979C102.326 1.22071 102.881 0.784314 103.587 0.470588C104.293 0.156863 105.096 0 105.994 0C106.909 0 107.707 0.156863 108.389 0.470588C109.075 0.784314 109.608 1.22071 109.989 1.77979C110.37 2.33886 110.567 2.98643 110.579 3.72247H108.082Z" fill="#333333"/>
<path d="M117.368 3.2583V5.18892H111.802V3.2583H117.368ZM113.065 1.03809H115.629V9.67761C115.629 9.91491 115.665 10.0999 115.737 10.2327C115.809 10.3614 115.909 10.4519 116.038 10.5042C116.17 10.5565 116.323 10.5826 116.495 10.5826C116.615 10.5826 116.736 10.5725 116.856 10.5524C116.976 10.5283 117.069 10.5102 117.133 10.4981L117.536 12.4107C117.408 12.4509 117.227 12.4971 116.994 12.5494C116.762 12.6057 116.479 12.6399 116.146 12.652C115.528 12.6761 114.987 12.5937 114.522 12.4046C114.06 12.2156 113.701 11.922 113.444 11.5238C113.188 11.1256 113.061 10.6228 113.065 10.0155V1.03809Z" fill="#333333"/>
<path d="M123.114 12.7063C122.179 12.7063 121.371 12.5072 120.689 12.109C120.011 11.7068 119.487 11.1477 119.118 10.4318C118.749 9.71185 118.565 8.87726 118.565 7.92804C118.565 6.97078 118.749 6.13418 119.118 5.41824C119.487 4.69828 120.011 4.1392 120.689 3.74101C121.371 3.3388 122.179 3.1377 123.114 3.1377C124.048 3.1377 124.855 3.3388 125.532 3.74101C126.214 4.1392 126.74 4.69828 127.109 5.41824C127.478 6.13418 127.662 6.97078 127.662 7.92804C127.662 8.87726 127.478 9.71185 127.109 10.4318C126.74 11.1477 126.214 11.7068 125.532 12.109C124.855 12.5072 124.048 12.7063 123.114 12.7063ZM123.126 10.7153C123.551 10.7153 123.906 10.5947 124.191 10.3533C124.475 10.108 124.69 9.7742 124.835 9.35187C124.983 8.92955 125.057 8.44891 125.057 7.90994C125.057 7.37098 124.983 6.89033 124.835 6.46801C124.69 6.04569 124.475 5.71185 124.191 5.4665C123.906 5.22115 123.551 5.09848 123.126 5.09848C122.696 5.09848 122.335 5.22115 122.043 5.4665C121.754 5.71185 121.535 6.04569 121.387 6.46801C121.242 6.89033 121.17 7.37098 121.17 7.90994C121.17 8.44891 121.242 8.92955 121.387 9.35187C121.535 9.7742 121.754 10.108 122.043 10.3533C122.335 10.5947 122.696 10.7153 123.126 10.7153Z" fill="#333333"/>
<path d="M129.329 12.5247V3.25773H131.814V4.87462H131.91C132.079 4.29946 132.362 3.86507 132.759 3.57145C133.156 3.27382 133.613 3.125 134.131 3.125C134.259 3.125 134.397 3.13304 134.546 3.14913C134.694 3.16522 134.825 3.18734 134.937 3.2155V5.49604C134.817 5.45984 134.65 5.42766 134.438 5.39951C134.225 5.37135 134.03 5.35728 133.854 5.35728C133.477 5.35728 133.14 5.43973 132.843 5.60464C132.55 5.76552 132.318 5.99076 132.145 6.28035C131.977 6.56995 131.892 6.90378 131.892 7.28186V12.5247H129.329Z" fill="#333333"/>
<path d="M138.126 15.9999C137.801 15.9999 137.496 15.9738 137.211 15.9215C136.931 15.8732 136.698 15.8109 136.513 15.7344L137.091 13.8159C137.392 13.9084 137.663 13.9587 137.903 13.9667C138.148 13.9748 138.359 13.9185 138.535 13.7978C138.716 13.6771 138.862 13.472 138.974 13.1824L139.125 12.7902L135.809 3.25781H138.505L140.418 10.0632H140.515L142.446 3.25781H145.16L141.568 13.5263C141.395 14.025 141.16 14.4594 140.864 14.8295C140.571 15.2035 140.2 15.4911 139.75 15.6922C139.301 15.8973 138.76 15.9999 138.126 15.9999Z" fill="#333333"/>
<path d="M151.387 3.2583V5.18892H145.822V3.2583H151.387ZM147.085 1.03809H149.648V9.67761C149.648 9.91491 149.684 10.0999 149.757 10.2327C149.829 10.3614 149.929 10.4519 150.057 10.5042C150.19 10.5565 150.342 10.5826 150.515 10.5826C150.635 10.5826 150.755 10.5725 150.876 10.5524C150.996 10.5283 151.088 10.5102 151.152 10.4981L151.556 12.4107C151.427 12.4509 151.247 12.4971 151.014 12.5494C150.781 12.6057 150.499 12.6399 150.166 12.652C149.548 12.6761 149.006 12.5937 148.541 12.4046C148.08 12.2156 147.721 11.922 147.464 11.5238C147.207 11.1256 147.081 10.6228 147.085 10.0155V1.03809Z" fill="#333333"/>
<path d="M157.169 12.7063C156.219 12.7063 155.4 12.5132 154.715 12.1271C154.033 11.737 153.507 11.1859 153.138 10.474C152.769 9.75811 152.585 8.91145 152.585 7.93408C152.585 6.98083 152.769 6.14423 153.138 5.42427C153.507 4.70431 154.027 4.14323 154.696 3.74101C155.37 3.3388 156.161 3.1377 157.067 3.1377C157.677 3.1377 158.244 3.23624 158.77 3.43332C159.299 3.62638 159.761 3.91799 160.154 4.30813C160.551 4.69828 160.86 5.18898 161.08 5.78023C161.301 6.36746 161.411 7.05524 161.411 7.84358V8.54946H153.607V6.9567H158.999C158.999 6.58666 158.918 6.25886 158.758 5.97329C158.597 5.68772 158.375 5.46449 158.09 5.30361C157.809 5.1387 157.482 5.05625 157.109 5.05625C156.72 5.05625 156.375 5.14675 156.074 5.32774C155.778 5.50471 155.545 5.74403 155.376 6.04569C155.208 6.34333 155.122 6.67515 155.118 7.04116V8.55549C155.118 9.01402 155.202 9.41019 155.37 9.74403C155.543 10.0778 155.786 10.3352 156.098 10.5162C156.411 10.6972 156.782 10.7877 157.212 10.7877C157.496 10.7877 157.757 10.7475 157.994 10.6671C158.23 10.5866 158.433 10.466 158.601 10.3051C158.77 10.1442 158.898 9.94715 158.987 9.71386L161.357 9.87073C161.237 10.4418 160.99 10.9406 160.617 11.3669C160.248 11.7892 159.771 12.1191 159.185 12.3564C158.603 12.5896 157.932 12.7063 157.169 12.7063Z" fill="#333333"/>
<path d="M165.647 0.168945V12.5249H163.084V0.168945H165.647Z" fill="#333333"/>
<path d="M170.264 0.168945V12.5249H167.701V0.168945H170.264Z" fill="#333333"/>
<path d="M176.529 12.7063C175.578 12.7063 174.76 12.5132 174.074 12.1271C173.392 11.737 172.867 11.1859 172.498 10.474C172.128 9.75811 171.944 8.91145 171.944 7.93408C171.944 6.98083 172.128 6.14423 172.498 5.42427C172.867 4.70431 173.386 4.14323 174.056 3.74101C174.73 3.3388 175.52 3.1377 176.427 3.1377C177.036 3.1377 177.604 3.23624 178.129 3.43332C178.659 3.62638 179.12 3.91799 179.513 4.30813C179.91 4.69828 180.219 5.18898 180.44 5.78023C180.66 6.36746 180.771 7.05524 180.771 7.84358V8.54946H172.967V6.9567H178.358C178.358 6.58666 178.278 6.25886 178.117 5.97329C177.957 5.68772 177.734 5.46449 177.449 5.30361C177.169 5.1387 176.842 5.05625 176.469 5.05625C176.08 5.05625 175.735 5.14675 175.434 5.32774C175.137 5.50471 174.904 5.74403 174.736 6.04569C174.567 6.34333 174.481 6.67515 174.477 7.04116V8.55549C174.477 9.01402 174.561 9.41019 174.73 9.74403C174.902 10.0778 175.145 10.3352 175.458 10.5162C175.771 10.6972 176.142 10.7877 176.571 10.7877C176.856 10.7877 177.116 10.7475 177.353 10.6671C177.59 10.5866 177.792 10.466 177.961 10.3051C178.129 10.1442 178.258 9.94715 178.346 9.71386L180.717 9.87073C180.596 10.4418 180.35 10.9406 179.977 11.3669C179.607 11.7892 179.13 12.1191 178.545 12.3564C177.963 12.5896 177.291 12.7063 176.529 12.7063Z" fill="#333333"/>
<path d="M182.443 12.5247V3.25773H184.928V4.87462H185.025C185.193 4.29946 185.476 3.86507 185.873 3.57145C186.27 3.27382 186.728 3.125 187.245 3.125C187.373 3.125 187.512 3.13304 187.66 3.14913C187.809 3.16522 187.939 3.18734 188.051 3.2155V5.49604C187.931 5.45984 187.764 5.42766 187.552 5.39951C187.339 5.37135 187.145 5.35728 186.968 5.35728C186.591 5.35728 186.254 5.43973 185.957 5.60464C185.665 5.76552 185.432 5.99076 185.259 6.28035C185.091 6.56995 185.007 6.90378 185.007 7.28186V12.5247H182.443Z" fill="#333333"/>
</svg>
