<svg width="40" height="40" viewBox="0 0 40 40" fill="none" xmlns="http://www.w3.org/2000/svg">
<g clip-path="url(#clip0_2460_4538)">
<rect width="40" height="40" rx="20" fill="#0047BB"/>
<path d="M-2.60838 43.6852C-2.56826 43.7402 -2.53816 43.7603 -2.52312 43.7452C-2.55321 43.7252 -2.57829 43.7052 -2.60838 43.6852ZM36.7529 23.3619C36.2163 21.4938 34.9775 19.6258 33.4678 18.4539C32.881 17.9731 32.57 17.6475 32.3444 17.2319C30.8648 14.5374 28.3972 12.9148 24.7008 12.1936C23.2915 11.9182 20.5029 11.9382 19.0684 12.2437C15.372 13.015 12.2173 14.9331 9.79987 17.8829C8.57108 19.3854 7.23195 21.7693 6.51474 23.7175C5.89784 25.4203 5.12044 29.1313 5.12044 30.4134C5.12044 30.6338 4.93487 30.9393 4.42831 31.5453C2.57259 33.829 0.997734 36.6386 -1.71563 42.5833C-2.11185 43.4448 -2.47296 44.196 -2.52312 44.2461C-2.43786 44.6668 -6.97183 53.7917 -8 56.441C-7.42322 58.4643 -3.08986 56.4711 0.867332 55.8651C1.79519 55.6397 2.58262 55.4795 2.61271 55.4995C2.66287 55.5596 2.34188 56.421 0.0598431 62.2656C-1.27427 65.6812 -3.07482 70.3939 -4.0729 73.0482C-4.71487 74.3654 -4.17822 75.0665 -3.11996 74.9363C-3.42089 76.1883 11.5904 58.5795 12.7339 57.7782L14.9558 55.9853C15.0912 55.8851 15.7532 55.4895 16.4353 55.1139C21.4257 52.3443 23.3165 51.0121 25.5785 48.7134C30.2579 43.9456 31.6322 38.5768 29.7614 32.4618C29.6561 32.1362 29.646 31.976 29.7213 31.9409C30.0423 31.8408 31.3814 30.8692 31.7676 30.4635C32.0033 30.2081 32.219 30.0078 32.239 30.0078C32.2691 30.0078 32.2942 30.4535 32.2942 31.0094C32.2942 32.1563 32.4447 32.4818 33.0566 32.602C33.523 32.6821 33.8741 32.4918 34.5762 31.7707C35.6495 30.6438 36.3718 29.3968 36.7981 27.8743C37.084 26.8526 37.0639 24.4386 36.7529 23.3619ZM-5.10608 55.0287C-5.10608 54.8985 0.721885 42.2678 1.9908 39.6435C4.63896 34.2046 6.69028 31.6304 9.51399 30.2281C10.3064 29.8425 11.6907 29.4168 12.5584 29.2966C13.4511 29.1814 14.9056 29.2666 15.8234 29.4969C17.1977 29.8425 18.8327 30.8291 19.6252 31.7707C20.237 32.5018 20.8038 33.6387 21.0395 34.6203C21.3404 35.8774 21.2803 37.6653 20.889 38.9724C20.0715 41.6518 17.8296 44.6617 14.9357 46.9956C12.1872 49.1992 8.33535 51.2475 4.02707 52.78C1.42405 53.7116 -5.10608 55.3242 -5.10608 55.0287ZM28.4674 38.6269C28.1163 41.9273 26.6317 44.797 23.8732 47.5164C21.9724 49.3995 19.8007 50.922 16.4855 52.74C12.3126 54.9987 11.7258 55.5596 3.14937 65.3055C1.70491 66.9532 0.29557 68.5659 0.0197201 68.8864C-0.261146 69.2119 -0.496872 69.4573 -0.516934 69.4373C-0.536996 69.4173 -0.281208 68.6961 0.0498123 67.8347C0.897425 65.6311 4.73927 55.8551 5.06026 55.0638L5.33109 54.4027L6.65016 53.9069C9.30835 52.9102 12.5684 51.2075 14.7301 49.685C19.2741 46.4897 22.3837 42.3329 23.141 38.4265C23.3567 37.3398 23.3466 35.5218 23.141 34.5101C22.4388 31.1396 20.0916 28.6556 16.6209 27.6038C15.7733 27.3484 15.5877 27.3284 13.747 27.3284C11.9816 27.3184 11.6907 27.3484 10.9083 27.5588C9.82494 27.8643 8.61622 28.3601 7.89901 28.7858L7.36235 29.1113L7.43758 28.5654C7.94415 24.7592 9.63436 21.0381 12.0869 18.3787C15.1012 15.1134 19.6252 13.5007 24.0187 14.1418C26.4963 14.4974 28.5326 15.489 29.646 16.8813C30.4636 17.8929 30.4535 17.8328 29.7012 18.6241C27.7652 20.6324 26.712 23.2517 26.5365 26.507C26.4462 28.3801 26.6919 29.8124 27.5897 32.4718C28.4072 34.8958 28.6781 36.7839 28.4674 38.6269ZM30.6893 28.5754C30.1626 29.2465 29.0592 30.1079 28.9439 29.9226C28.7784 29.6622 28.4925 26.7574 28.6329 26.7574C28.668 26.7574 29.1294 26.9628 29.646 27.2182C30.1626 27.4686 30.6993 27.7641 30.8347 27.8643L31.0955 28.0596L30.6893 28.5754ZM34.3606 28.5454L34.0295 29.2465L33.7788 28.5955C33.2421 27.1932 32.2691 26.2416 30.5438 25.3902C29.295 24.7692 28.984 24.5588 28.984 24.2734C28.984 23.8777 29.5658 22.4254 30.0172 21.6691C30.4234 21.0181 31.5068 19.6608 31.6422 19.6608C31.6723 19.6608 31.9532 19.8511 32.2591 20.0765C33.3123 20.8778 34.3455 22.4254 34.7317 23.7776C34.822 24.1131 34.9173 24.8343 34.9474 25.3902C35.0076 26.5972 34.832 27.5187 34.3606 28.5454Z" fill="#0047BB"/>
<path d="M31.0955 28.0596L30.6893 28.5754C30.1626 29.2465 29.0592 30.1079 28.9439 29.9226C28.7784 29.6622 28.4925 26.7574 28.6329 26.7574C28.668 26.7574 29.1294 26.9628 29.646 27.2182C30.1626 27.4686 30.6993 27.7641 30.8347 27.8643L31.0955 28.0596Z" fill="white"/>
<path d="M34.9474 25.3902C35.0076 26.5972 34.832 27.5187 34.3606 28.5454L34.0295 29.2465L33.7788 28.5955C33.2421 27.1932 32.2691 26.2416 30.5438 25.3902C29.295 24.7692 28.984 24.5588 28.984 24.2734C28.984 23.8777 29.5658 22.4254 30.0172 21.6691C30.4234 21.0181 31.5068 19.6608 31.6422 19.6608C31.6723 19.6608 31.9532 19.8511 32.2591 20.0765C33.3123 20.8778 34.3455 22.4254 34.7317 23.7776C34.822 24.1131 34.9173 24.8343 34.9474 25.3902Z" fill="white"/>
<path d="M29.7012 18.6241C30.4535 17.8328 30.4636 17.8929 29.646 16.8813C28.5326 15.489 26.4963 14.4974 24.0187 14.1418C19.6252 13.5007 15.1012 15.1134 12.0869 18.3787C9.63436 21.0381 7.94415 24.7592 7.43758 28.5654L7.36235 29.1113L7.89901 28.7858C8.61622 28.3601 9.82494 27.8643 10.9083 27.5588C11.6907 27.3484 11.9816 27.3184 13.747 27.3284C15.5877 27.3284 15.7733 27.3484 16.6209 27.6038C20.0916 28.6556 22.4388 31.1396 23.141 34.5101C23.3466 35.5218 23.3567 37.3398 23.141 38.4265C22.3837 42.3329 19.2741 46.4897 14.7301 49.685C12.5684 51.2075 9.30835 52.9102 6.65016 53.9069L5.33109 54.4027L5.06026 55.0638C4.73927 55.8551 0.897425 65.6311 0.0498123 67.8347C-0.281208 68.6961 -0.536996 69.4173 -0.516934 69.4373C-0.496872 69.4573 -0.261146 69.2119 0.0197201 68.8864C0.29557 68.5659 1.70491 66.9532 3.14937 65.3055C11.7258 55.5596 12.3126 54.9987 16.4855 52.74C19.8007 50.922 21.9724 49.3995 23.8732 47.5164C26.6317 44.797 28.1163 41.9273 28.4674 38.6269C28.6781 36.7839 28.4072 34.8958 27.5897 32.4718C26.6919 29.8124 26.4462 28.3801 26.5365 26.507C26.712 23.2517 27.7652 20.6324 29.7012 18.6241ZM22.158 22.3552C21.1147 22.1499 20.3323 21.4087 20.0816 20.4171C19.7806 19.1901 20.4878 17.8779 21.7166 17.4222C22.3235 17.1918 23.3667 17.2819 23.9585 17.6175C24.4851 17.923 24.9817 18.5891 25.1572 19.2502C25.6287 20.973 23.9685 22.7108 22.158 22.3552Z" fill="white"/>
<path d="M20.889 38.9724C20.0715 41.6518 17.8296 44.6617 14.9357 46.9956C12.1872 49.1992 8.33535 51.2475 4.02707 52.78C1.42405 53.7116 -5.10608 55.3242 -5.10608 55.0287C-5.10608 54.8985 0.721885 42.2678 1.9908 39.6435C4.63896 34.2046 6.69028 31.6304 9.51399 30.2281C10.3064 29.8425 11.6907 29.4168 12.5584 29.2966C13.4511 29.1814 14.9056 29.2666 15.8234 29.4969C17.1977 29.8425 18.8327 30.8291 19.6252 31.7707C20.237 32.5018 20.8038 33.6387 21.0395 34.6203C21.3404 35.8774 21.2803 37.6653 20.889 38.9724Z" fill="white"/>
<path d="M25.1572 19.2502C24.9817 18.5891 24.4851 17.923 23.9585 17.6175C23.3667 17.2819 22.3235 17.1918 21.7166 17.4222C20.4878 17.8779 19.7806 19.1901 20.0816 20.4171C20.3323 21.4087 21.1147 22.1499 22.158 22.3552C23.9685 22.7108 25.6287 20.973 25.1572 19.2502ZM22.9253 20.2718C22.3887 20.6174 21.7768 19.9613 22.1981 19.5006C22.4388 19.2401 22.9354 19.2401 23.0808 19.4906C23.2563 19.8161 23.1911 20.1016 22.9253 20.2718Z" fill="#0047BB"/>
</g>
<defs>
<clipPath id="clip0_2460_4538">
<rect width="40" height="40" rx="20" fill="white"/>
</clipPath>
</defs>
</svg>
