<svg width="14" height="12" viewBox="0 0 14 12" fill="none" xmlns="http://www.w3.org/2000/svg">
<path d="M13.2846 11.2894C13.6746 10.8994 13.6746 10.2694 13.2846 9.87937L9.41461 5.99937L13.2946 2.11937C13.6846 1.72937 13.6846 1.09937 13.2946 0.70937C12.9046 0.31937 12.2746 0.31937 11.8846 0.70937L7.29461 5.29937C6.90461 5.68937 6.90461 6.31937 7.29461 6.70937L11.8846 11.2994C12.2646 11.6794 12.8946 11.6794 13.2846 11.2894Z" fill="#0047BB"/>
<path d="M6.69461 11.2894C7.08461 10.8994 7.08461 10.2694 6.69461 9.87937L2.82461 5.99937L6.70461 2.11937C7.09461 1.72937 7.09461 1.09937 6.70461 0.70937C6.31461 0.31937 5.68461 0.31937 5.29461 0.70937L0.704609 5.29937C0.314609 5.68937 0.314609 6.31937 0.704609 6.70937L5.29461 11.2994C5.67461 11.6794 6.30461 11.6794 6.69461 11.2894Z" fill="#0047BB"/>
</svg>
