<?xml version="1.0" encoding="UTF-8"?>
<svg id="Livello_1" xmlns="http://www.w3.org/2000/svg" version="1.1" viewBox="0 0 94.25 127.52">
  <!-- Generator: Adobe Illustrator 29.6.1, SVG Export Plug-In . SVG Version: 2.1.1 Build 9)  -->
  <defs>
    <style>
      .st0 {
        display: none;
      }

      .st0, .st1 {
        fill: #0047bb;
      }

      .st2 {
        fill: #fff;
      }
    </style>
  </defs>
  <g>
    <path class="st1" d="M13.01,64.13c.08.11.14.15.17.12-.06-.04-.11-.08-.17-.12ZM91.49,23.55c-1.07-3.73-3.54-7.46-6.55-9.8-1.17-.96-1.79-1.61-2.24-2.44-2.95-5.38-7.87-8.62-15.24-10.06-2.81-.55-8.37-.51-11.23.1-7.37,1.54-13.66,5.37-18.48,11.26-2.45,3-5.12,7.76-6.55,11.65-1.23,3.4-2.78,10.81-2.78,13.37,0,.44-.37,1.05-1.38,2.26-3.7,4.56-6.84,10.17-12.25,22.04-.79,1.72-1.51,3.22-1.61,3.32.17.84-8.87,19.06-10.92,24.35,1.15,4.04,9.79.06,17.68-1.15,1.85-.45,3.42-.77,3.48-.73.1.12-.54,1.84-5.09,13.51-2.66,6.82-6.25,16.23-8.24,21.53-1.28,2.63-.21,4.03,1.9,3.77-.6,2.5,29.33-32.66,31.61-34.26l4.43-3.58c.27-.2,1.59-.99,2.95-1.74,9.95-5.53,13.72-8.19,18.23-12.78,9.33-9.52,12.07-20.24,8.34-32.45-.21-.65-.23-.97-.08-1.04.64-.2,3.31-2.14,4.08-2.95.47-.51.9-.91.94-.91.06,0,.11.89.11,2,0,2.29.3,2.94,1.52,3.18.93.16,1.63-.22,3.03-1.66,2.14-2.25,3.58-4.74,4.43-7.78.57-2.04.53-6.86-.09-9.01ZM8.03,86.78c0-.26,11.62-25.48,14.15-30.72,5.28-10.86,9.37-16,15-18.8,1.58-.77,4.34-1.62,6.07-1.86,1.78-.23,4.68-.06,6.51.4,2.74.69,6,2.66,7.58,4.54,1.22,1.46,2.35,3.73,2.82,5.69.6,2.51.48,6.08-.3,8.69-1.63,5.35-6.1,11.36-11.87,16.02-5.48,4.4-13.16,8.49-21.75,11.55-5.19,1.86-18.21,5.08-18.21,4.49ZM74.97,54.03c-.7,6.59-3.66,12.32-9.16,17.75-3.79,3.76-8.12,6.8-14.73,10.43-8.32,4.51-9.49,5.63-26.59,25.09-2.88,3.29-5.69,6.51-6.24,7.15-.56.65-1.03,1.14-1.07,1.1s.47-1.48,1.13-3.2c1.69-4.4,9.35-23.92,9.99-25.5l.54-1.32,2.63-.99c5.3-1.99,11.8-5.39,16.11-8.43,9.06-6.38,15.26-14.68,16.77-22.48.43-2.17.41-5.8,0-7.82-1.4-6.73-6.08-11.69-13-13.79-1.69-.51-2.06-.55-5.73-.55-3.52-.02-4.1.04-5.66.46-2.16.61-4.57,1.6-6,2.45l-1.07.65.15-1.09c1.01-7.6,4.38-15.03,9.27-20.34,6.01-6.52,15.03-9.74,23.79-8.46,4.94.71,9,2.69,11.22,5.47,1.63,2.02,1.61,1.9.11,3.48-3.86,4.01-5.96,9.24-6.31,15.74-.18,3.74.31,6.6,2.1,11.91,1.63,4.84,2.17,8.61,1.75,12.29ZM79.4,33.96c-1.05,1.34-3.25,3.06-3.48,2.69-.33-.52-.9-6.32-.62-6.32.07,0,.99.41,2.02.92,1.03.5,2.1,1.09,2.37,1.29l.52.39-.81,1.03ZM86.72,33.9l-.66,1.4-.5-1.3c-1.07-2.8-3.01-4.7-6.45-6.4-2.49-1.24-3.11-1.66-3.11-2.23,0-.79,1.16-3.69,2.06-5.2.81-1.3,2.97-4.01,3.24-4.01.06,0,.62.38,1.23.83,2.1,1.6,4.16,4.69,4.93,7.39.18.67.37,2.11.43,3.22.12,2.41-.23,4.25-1.17,6.3Z"/>
    <path class="st2" d="M80.21,32.93l-.81,1.03c-1.05,1.34-3.25,3.06-3.48,2.69-.33-.52-.9-6.32-.62-6.32.07,0,.99.41,2.02.92,1.03.5,2.1,1.09,2.37,1.29l.52.39Z"/>
    <path class="st2" d="M87.89,27.6c.12,2.41-.23,4.25-1.17,6.3l-.66,1.4-.5-1.3c-1.07-2.8-3.01-4.7-6.45-6.4-2.49-1.24-3.11-1.66-3.11-2.23,0-.79,1.16-3.69,2.06-5.2.81-1.3,2.97-4.01,3.24-4.01.06,0,.62.38,1.23.83,2.1,1.6,4.16,4.69,4.93,7.39.18.67.37,2.11.43,3.22Z"/>
    <path class="st2" d="M77.43,14.09c1.5-1.58,1.52-1.46-.11-3.48-2.22-2.78-6.28-4.76-11.22-5.47-8.76-1.28-17.78,1.94-23.79,8.46-4.89,5.31-8.26,12.74-9.27,20.34l-.15,1.09,1.07-.65c1.43-.85,3.84-1.84,6-2.45,1.56-.42,2.14-.48,5.66-.46,3.67,0,4.04.04,5.73.55,6.92,2.1,11.6,7.06,13,13.79.41,2.02.43,5.65,0,7.82-1.51,7.8-7.71,16.1-16.77,22.48-4.31,3.04-10.81,6.44-16.11,8.43l-2.63.99-.54,1.32c-.64,1.58-8.3,21.1-9.99,25.5-.66,1.72-1.17,3.16-1.13,3.2s.51-.45,1.07-1.1c.55-.64,3.36-3.86,6.24-7.15,17.1-19.46,18.27-20.58,26.59-25.09,6.61-3.63,10.94-6.67,14.73-10.43,5.5-5.43,8.46-11.16,9.16-17.75.42-3.68-.12-7.45-1.75-12.29-1.79-5.31-2.28-8.17-2.1-11.91.35-6.5,2.45-11.73,6.31-15.74ZM62.39,21.54c-2.08-.41-3.64-1.89-4.14-3.87-.6-2.45.81-5.07,3.26-5.98,1.21-.46,3.29-.28,4.47.39,1.05.61,2.04,1.94,2.39,3.26.94,3.44-2.37,6.91-5.98,6.2Z"/>
    <path class="st2" d="M59.86,54.72c-1.63,5.35-6.1,11.36-11.87,16.02-5.48,4.4-13.16,8.49-21.75,11.55-5.19,1.86-18.21,5.08-18.21,4.49,0-.26,11.62-25.48,14.15-30.72,5.28-10.86,9.37-16,15-18.8,1.58-.77,4.34-1.62,6.07-1.86,1.78-.23,4.68-.06,6.51.4,2.74.69,6,2.66,7.58,4.54,1.22,1.46,2.35,3.73,2.82,5.69.6,2.51.48,6.08-.3,8.69Z"/>
    <path class="st1" d="M68.37,15.34c-.35-1.32-1.34-2.65-2.39-3.26-1.18-.67-3.26-.85-4.47-.39-2.45.91-3.86,3.53-3.26,5.98.5,1.98,2.06,3.46,4.14,3.87,3.61.71,6.92-2.76,5.98-6.2ZM63.92,17.38c-1.07.69-2.29-.62-1.45-1.54.48-.52,1.47-.52,1.76-.02.35.65.22,1.22-.31,1.56Z"/>
  </g>
  <path class="st0" d="M-65.26-13.41c-40.22,1.49-66.26,48.04-44.3,81.99.64.97-.27-5.38,3.21-2.84.17.84-8.87,19.06-10.92,24.35,1.15,4.04,9.79.06,17.67-1.15,1.85-.45,3.42-.77,3.48-.73.1.12-.54,1.84-5.09,13.51-2.66,6.82-6.25,16.23-8.24,21.53-1.28,2.63-.21,4.03,1.9,3.77-.59,2.51,29.33-32.66,31.62-34.25,31.71,9.95,67.82-13.21,70.32-46.91C-1.67,12.46-32.45-16.24-65.26-13.41ZM-56.49-9.28C-40.38-7.7-26.56.36-17.81,13.31c4.41,6.54,7.17,14,8.05,21.88.31,2.67.25,8.55-.1,11.48-.95,8.06-3.6,15.19-8.14,21.9-8.07,11.95-20.47,19.65-35.43,21.96-3.56.55-10.92.51-14.42-.1-1.42-.24-2.92-.55-3.36-.65l-.78-.22.47-.36c.27-.2,1.59-.99,2.95-1.74,9.95-5.53,13.72-8.18,18.23-12.78,9.33-9.52,12.07-20.23,8.34-32.45-.21-.65-.23-.97-.08-1.03.64-.2,3.32-2.15,4.08-2.96.47-.51.91-.91.95-.91.06,0,.1.89.1,2.01,0,2.29.31,2.94,1.52,3.18.93.16,1.63-.22,3.03-1.66,2.14-2.25,3.58-4.74,4.43-7.78.58-2.05.54-6.87-.08-9.01-1.07-3.73-3.54-7.45-6.55-9.8-1.17-.95-1.79-1.6-2.25-2.43-2.95-5.39-7.87-8.63-15.24-10.07-2.8-.55-8.36-.51-11.23.1-7.37,1.54-13.66,5.37-18.48,11.26-2.45,3-5.13,7.76-6.55,11.65-1.24,3.4-2.78,10.82-2.78,13.37,0,.45-.37,1.05-1.38,2.27-3.71,4.56-6.84,10.17-12.26,22.04-.78,1.72-1.5,3.22-1.61,3.32-.27.26-3.05-5.41-4.08-8.26-.97-2.67-1.92-6.38-2.45-9.54-.49-3.02-.49-10.94,0-14.14,1.75-11.22,6.47-20.56,14.23-28.22,5.6-5.49,12.4-9.68,19.75-12.15,6.9-2.33,15.59-3.38,22.41-2.71ZM-53.44,5.63c4.94.71,9,2.69,11.23,5.47,1.63,2.03,1.61,1.9.1,3.48-3.85,4.01-5.95,9.24-6.3,15.74-.19,3.75.31,6.6,2.1,11.91,1.63,4.84,2.16,8.61,1.75,12.29-.7,6.58-3.67,12.32-9.17,17.74-3.79,3.77-8.12,6.81-14.73,10.43-8.32,4.52-9.5,5.63-26.59,25.1-2.88,3.28-5.68,6.5-6.24,7.15-.56.65-1.03,1.13-1.07,1.09-.04-.04.47-1.48,1.13-3.2,1.69-4.4,9.35-23.92,9.99-25.5l.54-1.32,2.64-.99c5.29-1.99,11.8-5.39,16.11-8.43,9.06-6.38,15.26-14.68,16.77-22.48.43-2.17.41-5.79,0-7.82-1.4-6.72-6.08-11.69-13-13.79-1.69-.51-2.06-.55-5.73-.55-3.52-.02-4.1.04-5.66.47-2.16.61-4.57,1.6-5.99,2.45l-1.07.65.14-1.09c1.01-7.6,4.39-15.03,9.27-20.34,6.01-6.52,15.04-9.74,23.79-8.47ZM-37,17.48c2.1,1.6,4.16,4.7,4.92,7.39.19.67.37,2.11.43,3.22.12,2.41-.23,4.25-1.17,6.3l-.66,1.4-.49-1.3c-1.07-2.8-3.01-4.7-6.45-6.4-2.49-1.24-3.11-1.66-3.11-2.23,0-.79,1.15-3.69,2.06-5.21.8-1.3,2.97-4.01,3.23-4.01.06,0,.62.38,1.24.83ZM-42.21,31.74c1.03.51,2.1,1.09,2.37,1.3l.51.38-.8,1.03c-1.05,1.34-3.25,3.06-3.48,2.69-.33-.53-.91-6.32-.62-6.32.06,0,.99.41,2.02.91ZM-69.77,36.3c2.74.69,5.99,2.65,7.58,4.54,1.22,1.46,2.35,3.73,2.82,5.69.6,2.51.47,6.08-.31,8.69-1.63,5.35-6.1,11.36-11.86,16.02-5.48,4.4-13.16,8.49-21.75,11.55-5.19,1.86-18.21,5.08-18.21,4.5,0-.26,11.62-25.48,14.15-30.73,5.27-10.86,9.37-16,15-18.8,1.59-.77,4.35-1.62,6.08-1.86,1.77-.22,4.68-.06,6.51.41Z"/>
  <path class="st0" d="M-58.07,12.63c-2.45.91-3.85,3.52-3.25,5.98.49,1.99,2.06,3.46,4.14,3.87,3.6.71,6.92-2.75,5.97-6.2-.35-1.32-1.34-2.65-2.39-3.26-1.17-.67-3.25-.85-4.47-.38ZM-55.35,16.77c.35.65.23,1.22-.31,1.56-1.07.69-2.29-.63-1.44-1.54.47-.53,1.46-.53,1.75-.02Z"/>
</svg>