<svg width="224" height="218" viewBox="0 0 224 218" fill="none" xmlns="http://www.w3.org/2000/svg">
<g clip-path="url(#clip0_148_10508)">
<path d="M193.687 217.603H24.4272C17.4748 217.603 11.8184 211.953 11.8184 205.009V57.376C11.8184 50.4318 17.4748 44.782 24.4272 44.782H193.687C200.64 44.782 206.296 50.4318 206.296 57.376V205.009C206.296 211.953 200.64 217.603 193.687 217.603Z" fill="white"/>
<path d="M193.686 218H24.426C17.2545 218 11.4199 212.172 11.4199 205.009V57.376C11.4199 50.2129 17.2545 44.3851 24.426 44.3851H193.686C200.858 44.3851 206.692 50.2129 206.692 57.376V205.009C206.692 212.172 200.858 218 193.686 218ZM24.426 45.1788C17.6925 45.1788 12.2145 50.6504 12.2145 57.376V205.009C12.2145 211.734 17.6925 217.206 24.426 217.206H193.686C200.419 217.206 205.898 211.734 205.898 205.009V57.376C205.898 50.6504 200.419 45.1788 193.686 45.1788H24.426Z" fill="#090814"/>
<path d="M165.77 188.238H52.1428C49.1852 188.238 46.7793 185.835 46.7793 182.881C46.7793 181.451 47.3376 180.106 48.3514 179.094C49.361 178.081 50.7077 177.523 52.1428 177.523H165.77C168.728 177.523 171.134 179.926 171.134 182.881C171.134 184.311 170.575 185.656 169.562 186.668C168.553 187.68 167.206 188.238 165.77 188.238Z" fill="#D6D6E3"/>
<path d="M140.739 182.881C140.739 184.306 140.159 185.595 139.226 186.528C138.292 187.46 137 188.04 135.574 188.04H52.1414C49.289 188.04 46.9766 185.73 46.9766 182.881C46.9766 181.456 47.5566 180.166 48.4905 179.234C49.424 178.297 50.7152 177.722 52.1414 177.722H135.574C138.427 177.722 140.739 180.032 140.739 182.881Z" fill="#1D41F5"/>
<path d="M131.462 167.007H85.2621C81.2406 167.007 77.9688 163.739 77.9688 159.722V99.2901C77.9688 95.2733 81.2406 92.0052 85.2621 92.0052L120.17 92.2041L138.755 112.262V159.722C138.755 163.739 135.484 167.007 131.462 167.007Z" fill="#D6D6E3"/>
<path d="M108.561 115.773H90.8749C90.1071 115.773 89.4844 115.151 89.4844 114.384C89.4844 113.617 90.1071 112.995 90.8749 112.995H108.561C109.328 112.995 109.951 113.617 109.951 114.384C109.951 115.151 109.328 115.773 108.561 115.773Z" fill="#090814"/>
<path d="M125.965 126.331H90.6816C89.9137 126.331 89.291 125.709 89.291 124.942C89.291 124.176 89.9137 123.554 90.6816 123.554H125.965C126.733 123.554 127.356 124.176 127.356 124.942C127.356 125.709 126.733 126.331 125.965 126.331Z" fill="#090814"/>
<path d="M125.966 136.134H90.8749C90.1071 136.134 89.4844 135.512 89.4844 134.745C89.4844 133.978 90.1071 133.356 90.8749 133.356H125.966C126.733 133.356 127.356 133.978 127.356 134.745C127.356 135.512 126.733 136.134 125.966 136.134Z" fill="#090814"/>
<path d="M99.7174 146.116H90.6816C89.9137 146.116 89.291 145.494 89.291 144.727C89.291 143.96 89.9137 143.338 90.6816 143.338H99.7174C100.485 143.338 101.108 143.96 101.108 144.727C101.108 145.494 100.485 146.116 99.7174 146.116Z" fill="#090814"/>
<path d="M138.556 112.737H120.564C118.547 112.737 116.906 111.098 116.906 109.083V92.2036H117.701V109.083C117.701 110.66 118.985 111.943 120.564 111.943H138.556V112.737Z" fill="black"/>
<path d="M108.963 172.166C105.391 172.166 102.485 169.263 102.485 165.695V159.467H98.1012C97.1855 159.467 96.3657 158.957 95.961 158.137C95.5564 157.317 95.6518 156.357 96.2097 155.632L107.241 141.3C107.689 140.718 108.37 140.384 109.102 140.396C109.836 140.403 110.508 140.745 110.944 141.335L121.724 155.911C122.284 156.668 122.368 157.661 121.944 158.501C121.519 159.342 120.67 159.864 119.727 159.864H115.441V165.695C115.441 169.263 112.535 172.166 108.963 172.166Z" fill="#1D41F5"/>
<path d="M146.899 111.252C147.557 111.252 148.091 110.719 148.091 110.061C148.091 109.404 147.557 108.871 146.899 108.871C146.241 108.871 145.707 109.404 145.707 110.061C145.707 110.719 146.241 111.252 146.899 111.252Z" fill="#D6D6E3"/>
<path d="M152.262 126.53C152.92 126.53 153.454 125.997 153.454 125.339C153.454 124.682 152.92 124.149 152.262 124.149C151.604 124.149 151.07 124.682 151.07 125.339C151.07 125.997 151.604 126.53 152.262 126.53Z" fill="#D6D6E3"/>
<path d="M68.0356 115.418C68.6939 115.418 69.2275 114.885 69.2275 114.228C69.2275 113.57 68.6939 113.037 68.0356 113.037C67.3774 113.037 66.8438 113.57 66.8438 114.228C66.8438 114.885 67.3774 115.418 68.0356 115.418Z" fill="#D6D6E3"/>
<path d="M69.2271 138.435C69.8853 138.435 70.419 137.902 70.419 137.244C70.419 136.587 69.8853 136.054 69.2271 136.054C68.5688 136.054 68.0352 136.587 68.0352 137.244C68.0352 137.902 68.5688 138.435 69.2271 138.435Z" fill="#D6D6E3"/>
<path d="M68.0356 156.292C68.6939 156.292 69.2275 155.759 69.2275 155.102C69.2275 154.444 68.6939 153.911 68.0356 153.911C67.3774 153.911 66.8438 154.444 66.8438 155.102C66.8438 155.759 67.3774 156.292 68.0356 156.292Z" fill="#D6D6E3"/>
<path d="M146.702 156.292C147.36 156.292 147.894 155.759 147.894 155.102C147.894 154.444 147.36 153.911 146.702 153.911C146.043 153.911 145.51 154.444 145.51 155.102C145.51 155.759 146.043 156.292 146.702 156.292Z" fill="#D6D6E3"/>
<path d="M146.702 138.435C147.36 138.435 147.894 137.902 147.894 137.244C147.894 136.587 147.36 136.054 146.702 136.054C146.043 136.054 145.51 136.587 145.51 137.244C145.51 137.902 146.043 138.435 146.702 138.435Z" fill="#D6D6E3"/>
<path d="M9.79381 39.8661C8.10607 39.8661 6.62202 38.6582 6.29766 36.9867L0.0654229 4.87961C-0.134778 3.848 0.129442 2.78732 0.790183 1.96962C1.45054 1.15232 2.43253 0.670224 3.48436 0.647749L33.6007 0.000952105C35.3594 -0.0389633 36.8501 1.18022 37.1752 2.89427L43.0819 34.031C43.2728 35.0386 43.0195 36.0791 42.3859 36.8864C41.7527 37.6932 40.8017 38.1881 39.7771 38.2435L9.98625 39.8607C9.92185 39.8642 9.85744 39.8661 9.79381 39.8661Z" fill="#D6D6E3"/>
<path d="M7.8457 34.6627L14.4011 17.0035L25.3268 25.1386L28.9025 21.5671L41.4174 34.4642L7.8457 34.6627Z" fill="#1D41F5"/>
<path d="M28.1067 15.4163C26.4636 15.4163 25.127 14.0812 25.127 12.44C25.127 10.7988 26.4636 9.46375 28.1067 9.46375C29.7498 9.46375 31.0864 10.7988 31.0864 12.44C31.0864 14.0812 29.7498 15.4163 28.1067 15.4163Z" fill="#1D41F5"/>
<path d="M10.9082 161.145C9.96932 161.145 9.05095 160.871 8.24743 160.34C7.14943 159.614 6.40876 158.502 6.16277 157.21L0.143929 125.611C-0.346099 123.037 1.27375 120.568 3.83175 119.989L30.7953 113.889C32.0749 113.6 33.3855 113.831 34.4874 114.539C35.59 115.249 36.3431 116.346 36.6081 117.628L43.1686 149.372C43.7032 151.959 42.0357 154.519 39.4517 155.078L11.9461 161.033C11.6008 161.108 11.2532 161.145 10.9082 161.145Z" fill="#D6D6E3"/>
<path d="M8.83654 132.681C8.18007 132.681 7.59615 132.215 7.47122 131.547C7.32999 130.793 7.82778 130.067 8.5828 129.926L30.3815 125.859C31.1361 125.716 31.8624 126.215 32.0036 126.969C32.1449 127.723 31.6471 128.449 30.8921 128.589L9.09339 132.657C9.00726 132.673 8.92113 132.681 8.83654 132.681Z" fill="#090814"/>
<path d="M10.8234 141.015C10.1941 141.015 9.62414 140.585 9.47166 139.947C9.29397 139.201 9.75528 138.452 10.5025 138.274L31.0224 133.394C31.7689 133.217 32.5189 133.677 32.6974 134.423C32.875 135.169 32.4137 135.919 31.6665 136.096L11.1466 140.977C11.0384 141.002 10.9301 141.015 10.8234 141.015Z" fill="#090814"/>
<path d="M12.2134 149.078C11.5705 149.078 10.9932 148.63 10.8547 147.976C10.6956 147.226 11.1755 146.488 11.9267 146.33L25.926 143.368C26.6814 143.21 27.4159 143.689 27.5746 144.439C27.7337 145.19 27.2537 145.927 26.5026 146.086L12.5032 149.047C12.4058 149.068 12.3088 149.078 12.2134 149.078Z" fill="#090814"/>
<path d="M213.806 63.9292C213.559 63.9292 213.309 63.9098 213.058 63.8707L185.254 59.5137C183.953 59.3094 182.817 58.6064 182.055 57.5334C181.293 56.4607 181.004 55.157 181.241 53.8634L187.041 22.2233C187.515 19.6462 189.915 17.931 192.512 18.3088L219.863 22.3357C221.16 22.5267 222.299 23.215 223.071 24.2737C223.843 25.3321 224.149 26.6264 223.933 27.9181L218.585 59.8888C218.192 62.2434 216.128 63.9292 213.806 63.9292Z" fill="#D6D6E3"/>
<path d="M214.9 36.1051C214.815 36.1051 214.729 36.0974 214.643 36.0811L192.843 32.0194C192.088 31.8787 191.59 31.1536 191.731 30.3995C191.871 29.6453 192.596 29.145 193.353 29.2888L215.153 33.3505C215.908 33.4912 216.406 34.2163 216.265 34.9704C216.14 35.6385 215.556 36.1051 214.9 36.1051Z" fill="#090814"/>
<path d="M212.842 43.3741C212.779 43.3741 212.717 43.3702 212.653 43.3613L191.752 40.5183C190.991 40.4149 190.458 39.715 190.562 38.9547C190.666 38.1943 191.369 37.6618 192.127 37.7661L213.028 40.609C213.789 40.7125 214.322 41.4124 214.218 42.1727C214.123 42.8691 213.527 43.3741 212.842 43.3741Z" fill="#090814"/>
<path d="M204.452 50.8361C204.378 50.8361 204.304 50.8299 204.228 50.8178L190.102 48.5345C189.344 48.412 188.829 47.6986 188.952 46.9414C189.075 46.1841 189.784 45.6714 190.547 45.7923L204.673 48.0757C205.431 48.1981 205.946 48.9116 205.823 49.6688C205.713 50.3509 205.123 50.8361 204.452 50.8361Z" fill="#090814"/>
</g>
<defs>
<clipPath id="clip0_148_10508">
<rect width="224" height="218" fill="white"/>
</clipPath>
</defs>
</svg>
