<svg width="16" height="14" viewBox="0 0 16 14" fill="none" xmlns="http://www.w3.org/2000/svg">
<path d="M2 12H14C14.275 12 14.5 11.775 14.5 11.5V4C14.5 3.725 14.275 3.5 14 3.5H9.33438C8.79375 3.5 8.26562 3.325 7.83438 3L6.63437 2.1C6.54687 2.03437 6.44375 2 6.33438 2H2C1.725 2 1.5 2.225 1.5 2.5V11.5C1.5 11.775 1.725 12 2 12ZM14 13.5H2C0.896875 13.5 0 12.6031 0 11.5V2.5C0 1.39687 0.896875 0.5 2 0.5H6.33438C6.76563 0.5 7.1875 0.640625 7.53437 0.9L8.73438 1.8C8.90625 1.93125 9.11875 2 9.33438 2H14C15.1031 2 16 2.89687 16 4V11.5C16 12.6031 15.1031 13.5 14 13.5Z" fill="#0047BB"/>
</svg>
