<?xml version="1.0" encoding="UTF-8"?>
<svg id="Livello_1" xmlns="http://www.w3.org/2000/svg" version="1.1" viewBox="0 0 179.01 215.15">
  <!-- Generator: Adobe Illustrator 29.6.1, SVG Export Plug-In . SVG Version: 2.1.1 Build 9)  -->
  <defs>
    <style>
      .st0 {
        fill: #fff;
      }

      .st1 {
        fill: #1e4ff0;
      }
    </style>
  </defs>
  <path class="st1" d="M333.9,49.44c-1-.73-1.9-1.37-2-1.37"/>
  <path class="st1" d="M35.84,198.49c27.74-32.12,29.65-33.96,43.15-41.42,10.73-5.98,17.75-11,23.9-17.22,8.93-8.96,13.74-18.42,14.88-29.28.67-6.08-.2-12.3-2.84-20.29-2.91-8.76-3.71-13.47-3.41-19.66.57-10.73,3.98-19.35,10.23-25.97,2.44-2.61,2.47-2.41-.17-5.75-3.61-4.58-10.2-7.86-18.22-9.03-14.21-2.11-28.85,3.21-38.61,13.97-7.92,8.76-13.4,21.03-15.04,33.56h0c-.09.72.69,1.23,1.32.85l.19-.12c2.31-1.4,6.22-3.04,9.73-4.04,2.54-.7,3.48-.8,9.19-.77,5.95,0,6.55.07,9.29.9,11.23,3.48,18.82,11.67,21.09,22.76.67,3.34.7,9.33,0,12.9-2.44,12.87-12.5,26.57-27.21,37.1-6.99,5.01-17.55,10.63-26.14,13.91l-2.09.8c-1.39.53-2.5,1.62-3.05,3.01-1.04,2.61-13.47,34.83-16.21,42.09-.37.97-.6,1.95.61,1l9.42-9.32Z"/>
  <path class="st1" d="M73.98,138.16c9.36-7.69,16.61-17.62,19.26-26.44,1.27-4.31,1.47-10.19.5-14.34-.77-3.24-2.61-6.99-4.58-9.39-2.57-3.11-7.85-6.35-12.3-7.49-2.97-.77-7.69-1.04-10.56-.66-2.81.4-7.29,1.8-9.86,3.07-9.13,4.61-15.78,13.1-24.33,31.02-4.11,8.66-22.97,50.28-22.97,50.71,0,.97,22.39-4.82,29.55-7.42,9.43-3.42,26.41-11.8,35.3-19.05Z"/>
  <path class="st1" d="M134.95,77.52l.38,1.02c.16.41.73.44.92.03l.57-1.22c1.54-3.38,2.11-6.42,1.9-10.4-.1-1.84-.4-4.21-.7-5.32-1.24-4.45-4.58-9.56-7.99-12.2-1-.73-1.9-1.37-2-1.37-.44,0-3.95,4.48-5.25,6.62-1.47,2.5-3.34,7.28-3.34,8.59,0,.94,1,1.64,5.05,3.68,5.58,2.81,8.73,5.95,10.46,10.56Z"/>
  <path class="st1" d="M121.59,72.98c-1.67-.84-3.18-1.51-3.28-1.51-.47,0,.47,9.56,1,10.43.37.6,3.95-2.24,5.65-4.45l.77-1.01c.29-.38.22-.93-.16-1.22l-.14-.11c-.44-.33-2.17-1.3-3.84-2.14Z"/>
  <circle class="st0" cx="102.68" cy="44.82" r="4.47"/>
</svg>