<svg width="994" height="1201" viewBox="0 0 994 1201" fill="none" xmlns="http://www.w3.org/2000/svg">
<path d="M174.454 1142.84C338.277 953.157 349.557 942.291 429.284 898.237C492.652 862.923 534.11 833.279 570.43 796.547C623.167 743.636 651.573 687.771 658.306 623.639C662.263 587.735 657.125 551.004 641.534 503.82C624.348 452.089 619.624 424.275 621.396 387.721C624.762 324.357 644.9 273.453 681.811 234.36C696.22 218.947 696.398 220.128 680.807 200.404C659.487 173.357 620.569 153.988 573.205 147.079C489.285 134.618 402.826 166.035 345.187 229.576C298.414 281.307 266.051 353.765 256.366 427.759C255.834 432.011 260.44 435.023 264.161 432.779L265.283 432.07C278.925 423.803 302.016 414.118 322.745 408.213C337.746 404.079 343.297 403.488 377.019 403.666C412.157 403.666 415.701 404.079 431.882 408.98C498.203 429.531 543.027 477.896 556.433 543.386C560.39 563.11 560.567 598.482 556.433 619.565C542.023 695.566 482.612 776.469 395.74 838.652C354.459 868.238 292.095 901.426 241.365 920.796L229.022 925.52C220.813 928.65 214.258 935.086 211.01 943.295C204.868 958.708 131.46 1148.98 115.279 1191.85C113.094 1197.58 111.735 1203.37 118.881 1197.76L174.513 1142.72L174.454 1142.84Z" fill="#0047BB"/>
<path d="M399.696 786.567C454.973 741.155 497.79 682.515 513.44 630.43C520.94 604.978 522.121 570.255 516.393 545.748C511.845 526.615 500.979 504.47 489.345 490.297C474.167 471.931 442.985 452.798 416.705 446.066C399.165 441.519 371.29 439.924 354.341 442.168C337.746 444.53 311.288 452.798 296.111 460.298C242.192 487.521 202.919 537.658 152.426 643.481C128.153 694.621 16.7721 940.401 16.7721 942.941C16.7721 948.669 149 914.477 191.285 899.123C246.975 878.927 347.254 829.44 399.755 786.626L399.696 786.567Z" fill="#0047BB"/>
<path d="M759.766 428.468L762.01 434.491C762.955 436.913 766.321 437.09 767.443 434.669L770.809 427.464C779.904 407.504 783.27 389.552 782.03 366.049C781.439 355.183 779.668 341.187 777.896 334.632C770.573 308.353 750.848 278.177 730.71 262.587C724.804 258.276 719.489 254.497 718.898 254.497C716.3 254.497 695.571 280.953 687.893 293.59C679.212 308.353 668.168 336.581 668.168 344.317C668.168 349.868 674.074 354.002 697.992 366.049C730.946 382.643 749.549 401.185 759.766 428.409V428.468Z" fill="#0047BB"/>
<path d="M680.866 401.658C671.003 396.697 662.086 392.741 661.495 392.741C658.719 392.741 664.271 449.196 667.401 454.333C669.586 457.877 690.728 441.105 700.768 428.055L705.315 422.09C707.028 419.846 706.615 416.598 704.37 414.886L703.544 414.236C700.945 412.287 690.728 406.559 680.866 401.599V401.658Z" fill="#0047BB"/>
<path d="M991.977 435.2C983.473 358.372 957.015 285.736 914.789 222.017C830.87 95.8795 698.406 17.3386 544.031 1.92563C478.655 -4.57024 395.385 5.646 329.242 28.3815C258.787 52.4753 193.647 93.3402 139.965 146.843C65.553 221.427 20.3155 312.428 3.54341 421.795C-1.18114 452.975 -1.18114 530.158 3.54341 559.566C8.68135 590.392 17.7761 626.474 27.048 652.575C36.9695 680.39 63.6042 735.664 66.1436 733.124C67.1476 732.12 74.0572 717.534 81.5574 700.763C133.468 585.077 163.469 530.394 199.021 485.986C208.707 474.175 212.25 468.211 212.25 463.9C212.25 439.038 227.073 366.757 238.944 333.628C252.586 295.716 278.217 249.359 301.721 220.128C347.904 162.669 408.141 125.406 478.832 110.348C506.294 104.442 559.563 104.029 586.434 109.403C657.125 123.398 704.311 154.992 732.54 207.49C736.911 215.581 742.816 221.899 754.037 231.171C782.857 254.083 806.539 290.401 816.814 326.719C822.72 347.624 823.133 394.63 817.582 414.531C809.491 444.117 795.672 468.388 775.179 490.356C761.714 504.352 755.041 508.131 746.182 506.536C734.548 504.174 731.595 497.856 731.595 475.533C731.595 464.668 731.182 455.987 730.591 455.987C730.178 455.987 726.044 459.884 721.497 464.845C714.174 472.758 688.543 491.714 682.401 493.663C681.043 494.253 681.22 497.383 683.169 503.761C718.898 622.812 692.618 727.219 603.206 819.992C559.976 864.813 523.834 890.62 428.516 944.535C422.02 948.196 415.583 951.917 410.445 954.988C405.366 958.058 401.527 960.48 400.287 961.483C398.397 962.96 398.988 965.971 401.291 966.621L403.24 967.212C407.374 968.216 421.784 971.168 435.426 973.53C468.97 979.436 539.484 979.849 573.619 974.534C716.949 952.035 835.772 876.978 913.136 760.525C956.543 695.212 982.055 625.706 991.091 547.106C994.457 518.524 995.048 461.243 992.095 435.2H991.977Z" fill="#0047BB"/>
<path d="M569.189 261.76C583.769 261.76 595.588 249.942 595.588 235.363C595.588 220.785 583.769 208.967 569.189 208.967C554.61 208.967 542.791 220.785 542.791 235.363C542.791 249.942 554.61 261.76 569.189 261.76Z" fill="white"/>
</svg>
