<svg width="232" height="30" viewBox="0 0 232 30" fill="none" xmlns="http://www.w3.org/2000/svg">
<path d="M226.335 17.1204C226.492 13.6649 224.921 11.1518 221.152 11.1518C218.01 11.1518 216.126 13.822 216.126 17.1204H226.335ZM216.126 19.6335C215.812 23.2461 217.225 26.8586 221.152 26.8586C224.136 26.8586 225.55 25.7592 226.021 22.7749H230.105C229.476 27.3298 226.021 29.6859 221.152 29.6859C214.712 29.6859 212.042 25.1309 212.042 19.1623C212.042 13.1937 215.026 8.32461 221.466 8.32461C227.435 8.48168 230.419 12.2513 230.419 17.9058V19.7906H216.126V19.6335ZM195.079 11.7801C196.492 9.26702 199.319 8.16754 201.204 8.16754C202.618 8.16754 208.901 8.48168 208.901 15.0785V29.0576H205.131V16.3351C205.131 13.0366 203.717 11.1518 200.576 11.1518C200.576 11.1518 198.534 10.9948 196.806 12.5654C196.178 13.1937 195.236 13.9791 195.236 17.9058V28.9005H191.466V8.79581H195.236V11.7801H195.079ZM179.843 19.3194C177.487 19.4764 174.346 20.2618 174.346 23.2461C174.346 25.7592 176.073 27.0157 178.272 27.0157C182.827 27.0157 183.613 23.089 183.613 19.3194H179.843ZM183.613 16.6492C183.613 13.1937 183.456 11.1518 179.372 11.1518C177.487 11.1518 175.602 12.2513 175.602 14.4503H171.518C171.675 10.0524 175.131 8.48168 179.215 8.48168C183.298 8.48168 187.539 9.73822 187.539 15.3927V25.1309C187.539 26.0733 187.539 27.644 187.696 29.3717H185.026C184.712 29.3717 183.927 29.5288 183.927 29.0576C183.77 28.1152 183.77 27.1728 183.77 26.3874C182.513 28.9005 180.314 30 177.487 30C174.031 30 170.419 28.1152 170.419 24.1885C170.419 18.534 175.445 16.8063 180.314 16.8063H183.613V16.6492ZM162.723 0H167.277V4.08377H162.723V0ZM163.037 8.79581H166.806V29.0576H163.037V8.79581ZM154.398 0H158.168V29.0576H154.398V0ZM143.089 19.3194C140.733 19.4764 137.592 20.2618 137.592 23.2461C137.592 25.7592 139.319 27.0157 141.518 27.0157C146.073 27.0157 146.859 23.089 146.859 19.3194H143.089ZM146.859 16.6492C146.859 13.0366 146.702 10.9948 142.618 10.9948C140.733 10.9948 138.848 12.0942 138.848 14.2932H134.764C134.921 9.89529 138.377 8.32461 142.461 8.32461C146.545 8.32461 150.785 9.58115 150.785 15.2356V24.9738C150.785 25.9162 150.785 27.4869 150.942 29.2147H148.429C148.115 29.2147 147.33 29.3717 147.33 28.9005C147.173 27.9581 147.173 27.0157 147.173 26.2304H147.016C145.759 28.7435 143.56 29.8429 140.733 29.8429C137.277 29.8429 133.665 27.9581 133.665 24.0314C133.665 18.377 138.691 16.6492 143.56 16.6492H146.859ZM123.298 8.79581V4.55497L127.068 3.29843V8.79581L131.78 8.63874V11.466H127.068V24.5026C127.068 25.9162 128.168 26.7016 129.581 26.7016C130.209 26.7016 130.995 26.5445 131.623 26.3874V29.3717C130.681 29.3717 129.895 29.6859 128.953 29.6859C128.01 29.6859 127.225 29.6859 126.44 29.5288C125.812 29.3717 124.869 29.0576 124.241 28.2723C123.613 27.3298 123.298 27.1728 123.298 24.5026V11.623H119.843V8.79581H123.298ZM112.932 0H117.487V4.08377H112.932V0ZM113.403 8.79581H117.173V29.0576H113.403V8.79581ZM74.6073 9.10995V5.96859L82.3037 3.14136V9.10995H86.7016V13.9791H82.3037V21.9895C82.3037 22.4607 81.9895 25.1309 83.7173 25.1309C84.6597 25.1309 85.7592 25.1309 86.7016 24.9738V29.5288C84.9738 29.8429 83.7173 30 82.6178 30C77.4346 30 74.2932 29.2147 74.7644 23.089V13.822H70.8377V9.10995H74.6073ZM62.0419 15.2356C62.0419 14.6073 61.8848 13.9791 61.5707 13.5079C61.0995 13.0366 60.4712 12.7225 59.5288 12.7225C58.4293 12.7225 57.801 13.3508 57.801 14.6073C57.801 16.0209 60.9424 16.0209 65.6544 17.4346C68.0105 18.2199 69.7382 19.6335 69.7382 22.9319C69.7382 28.2723 64.712 29.6859 60.1571 29.6859C55.288 29.6859 50.4188 28.7435 50.4188 22.4607H57.644C57.4869 23.089 57.801 23.7173 58.1152 24.1885C58.5864 24.6597 59.2147 25.1309 59.8429 25.1309C61.2565 25.1309 62.356 24.5026 62.356 23.2461C62.356 19.6335 50.4188 21.8325 50.4188 14.4503C50.4188 9.42408 55.7592 8.16754 59.6859 8.16754C64.3979 8.16754 68.9529 9.42408 69.267 14.9215H62.0419V15.2356ZM37.0681 25.445C40.2094 25.445 40.9948 21.9895 40.9948 19.1623C40.9948 16.3351 40.3665 12.8796 37.0681 12.8796C33.9267 12.8796 33.1414 16.3351 33.1414 19.1623C33.1414 21.9895 33.7696 25.445 37.0681 25.445ZM48.6911 19.1623C48.6911 26.5445 43.1937 29.8429 36.911 29.8429C30.6283 29.8429 25.1309 26.5445 25.1309 19.1623C25.1309 11.7801 30.6283 8.48168 36.911 8.48168C43.3508 8.48168 48.6911 11.7801 48.6911 19.1623ZM12.0942 13.1937C15.2356 13.0366 16.6492 11.623 16.6492 9.42408C16.6492 7.22513 15.3927 5.81152 12.0942 5.65445H8.01047V13.0366H12.0942V13.1937ZM0 29.2147V0.314136H13.3508C20.4188 0.314136 25.1309 2.67016 25.1309 9.58115C25.1309 16.6492 20.4188 18.8482 13.3508 18.8482H8.01047V29.2147H0ZM102.88 16.6492C102.88 15.5497 102.565 14.4503 101.937 13.6649C101.309 12.8796 100.524 12.2513 99.267 12.4084C96.5969 12.5654 95.9686 14.4503 95.8115 16.6492H102.88ZM95.6544 20.733C95.6544 23.4031 96.2827 25.6021 99.1099 25.6021C101.309 25.6021 102.565 24.6597 102.88 22.7749H109.948C109.634 25.288 108.063 27.1728 106.021 28.2723C104.293 29.3717 101.937 29.8429 99.5811 29.8429C91.5707 29.8429 88.2723 26.3874 88.2723 18.534C88.2723 12.0942 92.9843 8.48168 99.1099 8.48168C107.277 8.48168 109.948 13.1937 109.948 20.733H95.6544Z" fill="#0047BB"/>
</svg>
