<svg width="128" height="124" viewBox="0 0 128 124" fill="none" xmlns="http://www.w3.org/2000/svg">
<g clip-path="url(#clip0_148_2661)">
<path d="M81.2589 27.8872H46.7684C45.9825 27.8882 45.229 28.1985 44.6732 28.75C44.1174 29.3016 43.8048 30.0494 43.8038 30.8295V106.906L43.4085 107.025L34.9475 109.597C34.5465 109.718 34.1134 109.677 33.7432 109.481C33.373 109.286 33.0961 108.953 32.9731 108.555L7.80532 26.9673C7.68284 26.5693 7.72459 26.1394 7.92138 25.7719C8.11817 25.4045 8.45391 25.1296 8.85481 25.0078L21.8933 21.0456L59.6923 9.56303L72.7307 5.60082C72.9291 5.54022 73.1376 5.51904 73.3443 5.5385C73.551 5.55796 73.7517 5.61768 73.9351 5.71424C74.1185 5.8108 74.2809 5.94231 74.4131 6.10123C74.5452 6.26015 74.6444 6.44338 74.7051 6.64041L81.1383 27.4949L81.2589 27.8872Z" fill="#F2F2F2"/>
<path d="M88.7867 27.4951L81.0332 2.36065C80.9042 1.94187 80.6933 1.55241 80.4126 1.21454C80.1319 0.876668 79.7868 0.597006 79.3972 0.391532C79.0075 0.186058 78.5808 0.0587979 78.1416 0.0170283C77.7024 -0.0247413 77.2591 0.0197982 76.8372 0.148097L58.506 5.71676L20.709 17.2013L2.37773 22.7719C1.52616 23.0314 0.813123 23.6156 0.395139 24.3964C-0.0228463 25.1771 -0.111632 26.0905 0.148273 26.9361L26.6481 112.835C26.8592 113.518 27.2853 114.116 27.8636 114.54C28.442 114.965 29.1423 115.194 29.8618 115.195C30.1948 115.195 30.5259 115.146 30.844 115.048L43.4101 111.231L43.8054 111.109V110.699L43.4101 110.819L30.7275 114.673C29.9758 114.901 29.1639 114.823 28.4699 114.457C27.776 114.091 27.2566 113.467 27.0256 112.722L0.527827 26.8204C0.41341 26.451 0.373533 26.0629 0.410477 25.6782C0.447421 25.2935 0.560458 24.9198 0.743123 24.5786C0.925787 24.2373 1.17449 23.9352 1.47499 23.6894C1.77548 23.4437 2.12186 23.2592 2.4943 23.1465L20.8256 17.5759L58.6226 6.09336L76.9539 0.522745C77.2364 0.437185 77.5301 0.393559 77.8255 0.393286C78.4593 0.394698 79.0761 0.597508 79.5854 0.972007C80.0947 1.34651 80.4698 1.87302 80.6558 2.47442L88.3736 27.4951L88.4962 27.8874H88.9073L88.7867 27.4951Z" fill="#3F3D56"/>
<path d="M24.2475 25.0719C23.8666 25.0716 23.4958 24.9502 23.1894 24.7255C22.8831 24.5007 22.6575 24.1844 22.5455 23.8231L19.9998 15.5708C19.9314 15.3491 19.9077 15.1162 19.93 14.8854C19.9523 14.6547 20.0202 14.4305 20.1297 14.2258C20.2393 14.021 20.3885 13.8397 20.5687 13.6922C20.7489 13.5447 20.9566 13.4338 21.18 13.366L55.9529 2.8007C56.404 2.66408 56.8913 2.71068 57.3078 2.93024C57.7243 3.14981 58.036 3.52442 58.1746 3.97184L60.7203 12.2243C60.8578 12.6719 60.8108 13.1555 60.5896 13.5688C60.3684 13.9822 59.991 14.2916 59.5402 14.4291L24.7672 24.9944C24.5988 25.0457 24.4236 25.0718 24.2475 25.0719Z" fill="#1E4FF0"/>
<path d="M37.5817 8.81774C39.7648 8.81774 41.5346 7.06137 41.5346 4.89477C41.5346 2.72818 39.7648 0.971802 37.5817 0.971802C35.3987 0.971802 33.6289 2.72818 33.6289 4.89477C33.6289 7.06137 35.3987 8.81774 37.5817 8.81774Z" fill="#1E4FF0"/>
<path d="M37.5831 7.37894C38.9655 7.37894 40.0862 6.26675 40.0862 4.89479C40.0862 3.52284 38.9655 2.41064 37.5831 2.41064C36.2007 2.41064 35.0801 3.52284 35.0801 4.89479C35.0801 6.26675 36.2007 7.37894 37.5831 7.37894Z" fill="white"/>
<path d="M119.106 114.193H52.303C51.8576 114.192 51.4306 114.016 51.1157 113.704C50.8007 113.391 50.6236 112.967 50.623 112.525V33.0851C50.6235 32.6431 50.8007 32.2193 51.1156 31.9067C51.4306 31.5942 51.8576 31.4183 52.303 31.4178H119.106C119.551 31.4184 119.978 31.5942 120.293 31.9067C120.608 32.2193 120.785 32.6431 120.786 33.0851V112.525C120.785 112.967 120.608 113.391 120.293 113.704C119.978 114.016 119.551 114.192 119.106 114.193Z" fill="#E6E6E6"/>
<path d="M88.3737 27.4949H46.7701C45.8794 27.4961 45.0255 27.8478 44.3956 28.4729C43.7658 29.098 43.4114 29.9454 43.4102 30.8294V110.819L43.8054 110.699V30.8294C43.8064 30.0494 44.119 29.3015 44.6748 28.75C45.2306 28.1984 45.9841 27.8881 46.7701 27.8872H88.4962L88.3737 27.4949ZM124.641 27.4949H46.7701C45.8794 27.4961 45.0255 27.8478 44.3956 28.4729C43.7658 29.098 43.4114 29.9454 43.4102 30.8294V120.665C43.4114 121.549 43.7658 122.397 44.3956 123.022C45.0255 123.647 45.8794 123.999 46.7701 124H124.641C125.532 123.999 126.386 123.647 127.015 123.022C127.645 122.397 128 121.549 128.001 120.665V30.8294C128 29.9454 127.645 29.098 127.015 28.4729C126.386 27.8478 125.532 27.4961 124.641 27.4949ZM127.606 120.665C127.605 121.445 127.292 122.193 126.736 122.745C126.18 123.296 125.427 123.607 124.641 123.608H46.7701C45.9841 123.607 45.2306 123.296 44.6748 122.745C44.119 122.193 43.8064 121.445 43.8054 120.665V30.8294C43.8064 30.0494 44.119 29.3015 44.6748 28.75C45.2306 28.1984 45.9841 27.8881 46.7701 27.8872H124.641C125.427 27.8881 126.18 28.1984 126.736 28.75C127.292 29.3015 127.605 30.0494 127.606 30.8294V120.665Z" fill="#3F3D56"/>
<path d="M103.887 36.1254H67.521C67.0494 36.1249 66.5972 35.9388 66.2638 35.6078C65.9303 35.2769 65.7427 34.8281 65.7422 34.3601V25.7296C65.7427 25.2615 65.9303 24.8128 66.2638 24.4819C66.5972 24.1509 67.0494 23.9648 67.521 23.9642H103.887C104.359 23.9648 104.811 24.1509 105.144 24.4819C105.478 24.8128 105.665 25.2615 105.666 25.7296V34.3601C105.665 34.8281 105.478 35.2769 105.144 35.6078C104.811 35.9388 104.359 36.1249 103.887 36.1254Z" fill="#1E4FF0"/>
<path d="M85.7048 24.5526C87.8879 24.5526 89.6576 22.7962 89.6576 20.6296C89.6576 18.463 87.8879 16.7067 85.7048 16.7067C83.5217 16.7067 81.752 18.463 81.752 20.6296C81.752 22.7962 83.5217 24.5526 85.7048 24.5526Z" fill="#1E4FF0"/>
<path d="M85.7045 23.0191C87.0342 23.0191 88.1122 21.9494 88.1122 20.6297C88.1122 19.31 87.0342 18.2402 85.7045 18.2402C84.3748 18.2402 83.2969 19.31 83.2969 20.6297C83.2969 21.9494 84.3748 23.0191 85.7045 23.0191Z" fill="white"/>
</g>
<defs>
<clipPath id="clip0_148_2661">
<rect width="128" height="124" fill="white"/>
</clipPath>
</defs>
</svg>
