<svg width="16" height="12" viewBox="0 0 16 12" fill="none" xmlns="http://www.w3.org/2000/svg">
<path d="M1.92471 10.6154L3.39846 6H14.5812L13.1075 10.6154H1.92471ZM7.54558 12H13.1104C13.7294 12 14.2777 11.6077 14.4604 11.0279L15.9341 6.4125C16.2201 5.52115 15.5392 4.61538 14.5842 4.61538H3.40141C2.78243 4.61538 2.2342 5.00769 2.05146 5.5875L1.4148 7.56923V1.84615C1.4148 1.59231 1.62702 1.38462 1.8864 1.38462H5.97457C6.07773 1.38462 6.175 1.41635 6.25753 1.47692L7.38937 2.30769C7.79612 2.60769 8.29425 2.76923 8.80416 2.76923H12.2616C12.521 2.76923 12.7332 2.97692 12.7332 3.23077H14.148C14.148 2.2125 13.302 1.38462 12.2616 1.38462H8.80416C8.60079 1.38462 8.40036 1.32115 8.23824 1.2L7.10641 0.369231C6.77923 0.129808 6.38427 0 5.97457 0H1.8864C0.845931 0 0 0.827885 0 1.84615V10.1538C0 11.1721 0.845931 12 1.8864 12H7.54558Z" fill="#0047BB"/>
</svg>
