<svg width="112" height="141" viewBox="0 0 112 141" fill="none" xmlns="http://www.w3.org/2000/svg">
<path d="M52.1951 0.0667175C48.2403 0.451565 46.8602 0.654116 44.1825 1.18075C38.0443 2.3758 30.8145 5.23177 25.562 8.53336C15.0571 15.1163 6.75613 25.3856 2.98671 36.4652C-0.185364 45.8028 -0.865094 56.0721 1.1123 65.4705C2.20399 70.6558 5.0465 77.583 7.88901 82.0594C8.52755 83.0317 9.04249 83.9432 9.04249 84.0444C9.04249 84.328 3.37807 96.6026 0.926923 101.626C0.514965 102.456 0.185398 103.327 0.185398 103.57C0.185398 104.178 1.07111 105.191 1.73024 105.353C2.65715 105.576 11.3701 103.996 17.8584 102.416C19.7122 101.97 21.2776 101.646 21.3394 101.687C21.4424 101.808 20.8039 103.53 16.2518 115.197C14.5421 119.592 12.1116 125.892 10.8757 129.173C9.61923 132.454 8.34216 135.857 8.0126 136.728C7.27107 138.632 7.25048 139.078 7.82722 139.787C8.42456 140.516 9.04249 140.739 9.9076 140.495C11.0405 140.192 15.6544 135.249 27.4364 121.739C34.8105 113.293 38.6623 108.999 40.4131 107.338L41.5254 106.244L44.3885 106.953C49.1054 108.108 51.5565 108.391 56.9326 108.411C61.7319 108.411 63.6269 108.249 67.6435 107.459C76.3976 105.778 84.8222 101.909 91.743 96.4203C95.8626 93.1592 100.497 88.0549 103.463 83.5381C108.036 76.5703 110.92 68.2454 111.847 59.3332C112.156 56.3962 111.97 48.9828 111.538 46.1269C110.075 36.769 106.182 27.9783 100.374 20.8282C98.0872 18.0533 93.9264 13.9415 91.3311 11.8957C83.7717 5.98121 74.2966 2.03146 64.1419 0.532585C61.5671 0.147738 54.1931 -0.135834 52.1951 0.0667175ZM60.9698 4.19876C77.0773 5.77866 90.8985 13.8402 99.6526 26.7832C104.061 33.3256 106.821 40.7795 107.706 48.6587C108.015 51.3324 107.954 57.2064 107.603 60.1434C106.656 68.2049 103.999 75.3347 99.4673 82.0392C91.3929 93.9897 78.9929 101.687 64.0389 103.996C60.4754 104.543 53.122 104.502 49.6203 103.894C48.1991 103.651 46.6954 103.348 46.2629 103.246L45.4802 103.023L45.9539 102.659C46.2217 102.456 47.54 101.666 48.8994 100.917C58.8482 95.3873 62.6176 92.7339 67.1286 88.136C76.4594 78.6161 79.1989 67.9011 75.4707 55.6873C75.2647 55.0391 75.2441 54.715 75.3883 54.6543C76.0268 54.4517 78.7046 52.5072 79.4667 51.697C79.9404 51.1906 80.373 50.7855 80.4142 50.7855C80.476 50.7855 80.5172 51.6768 80.5172 52.7908C80.5172 55.0796 80.8262 55.7278 82.0414 55.9708C82.9683 56.1329 83.6687 55.748 85.0693 54.3099C87.2115 52.0616 88.6534 49.5702 89.4979 46.532C90.0746 44.4862 90.0334 39.6655 89.4155 37.5184C88.3444 33.7915 85.8726 30.0645 82.8653 27.715C81.6913 26.763 81.0733 26.1148 80.6202 25.2843C77.6747 19.8965 72.7518 16.6557 65.3777 15.2175C62.5764 14.6707 57.015 14.7112 54.1519 15.3188C46.7778 16.8582 40.4955 20.6864 35.6756 26.5807C33.2244 29.5784 30.5467 34.3384 29.1254 38.2274C27.8896 41.6302 26.3447 49.0436 26.3447 51.5957C26.3447 52.0413 25.974 52.649 24.9647 53.8643C21.257 58.4217 18.1262 64.0324 12.7089 75.9019C11.9262 77.6236 11.2053 79.1224 11.1023 79.2237C10.8345 79.487 8.05379 73.8156 7.0239 70.9596C6.0558 68.286 5.1083 64.5793 4.57275 61.4195C4.0784 58.4015 4.0784 50.4817 4.57275 47.2814C6.32357 36.0601 11.0405 26.7225 18.8059 19.066C24.4085 13.5769 31.2058 9.38407 38.5593 6.91295C45.4596 4.58361 54.1519 3.53034 60.9698 4.19876ZM64.0183 19.1065C68.9618 19.8155 73.0196 21.8005 75.2441 24.5754C76.8714 26.6009 76.8508 26.4794 75.3471 28.0593C71.4953 32.0698 69.3943 37.2956 69.0442 43.7975C68.8588 47.5447 69.3531 50.4007 71.1451 55.7075C72.7724 60.5485 73.3079 64.3159 72.896 68.0024C72.1956 74.5853 69.2295 80.3175 63.7299 85.7459C59.9399 89.5133 55.6143 92.5516 49.0024 96.1772C40.6809 100.694 39.5068 101.808 22.4105 121.273C19.5268 124.555 16.7255 127.775 16.1694 128.423C15.6132 129.072 15.1395 129.558 15.0983 129.517C15.0571 129.477 15.572 128.039 16.2312 126.317C17.9202 121.921 25.5826 102.396 26.2211 100.816L26.7567 99.4991L29.3932 98.5066C34.6869 96.5216 41.1958 93.1187 45.5008 90.0805C54.5638 83.7001 60.7638 75.3955 62.2675 67.5973C62.7 65.43 62.6794 61.8043 62.2675 59.7788C60.8668 53.0541 56.1911 48.0916 49.2702 45.9851C47.5812 45.4787 47.2104 45.4382 43.544 45.4382C40.0217 45.4179 39.445 45.4787 37.8795 45.904C35.7168 46.5117 33.3068 47.5042 31.8856 48.3549L30.8145 49.0031L30.9587 47.9093C31.968 40.3136 35.346 32.88 40.2277 27.5732C46.2423 21.051 55.2642 17.8305 64.0183 19.1065ZM80.4554 30.9558C82.5564 32.5559 84.6162 35.655 85.3783 38.3489C85.5637 39.0173 85.7491 40.4554 85.8109 41.5695C85.9344 43.9798 85.5843 45.823 84.6368 47.8688L83.9776 49.2664L83.4833 47.9701C82.4122 45.1749 80.476 43.2709 77.0361 41.5695C74.5438 40.3339 73.9259 39.9085 73.9259 39.3414C73.9259 38.5514 75.0793 35.655 75.9857 34.1358C76.789 32.8395 78.9517 30.1253 79.2195 30.1253C79.2813 30.1253 79.8375 30.5102 80.4554 30.9558ZM75.2441 45.2154C76.274 45.7218 77.3451 46.3091 77.6129 46.5117L78.1278 46.8965L77.3245 47.9296C76.274 49.2664 74.07 50.9881 73.8435 50.6235C73.5139 50.0969 72.9372 44.3039 73.2255 44.3039C73.2873 44.3039 74.2142 44.709 75.2441 45.2154ZM47.6841 49.7728C50.4237 50.4614 53.6781 52.4262 55.2642 54.3099C56.4794 55.7683 57.6123 58.0369 58.0861 60.0016C58.6834 62.5132 58.5598 66.0781 57.7771 68.6911C56.1499 74.0384 51.6801 80.0542 45.9127 84.7129C40.4337 89.1082 32.7507 93.1997 24.1613 96.2583C18.9707 98.1217 5.95281 101.342 5.95281 100.755C5.95281 100.492 17.57 75.274 20.1036 70.0279C25.3766 59.1711 29.4756 54.0263 35.0988 51.2311C36.6849 50.4614 39.445 49.6107 41.1752 49.3677C42.9466 49.1449 45.8509 49.3069 47.6841 49.7728Z" fill="#0047BB"/>
<path d="M59.3878 26.1127C56.9367 27.0242 55.536 29.6371 56.1334 32.088C56.6277 34.073 58.1932 35.5516 60.2736 35.9567C63.8782 36.6656 67.1944 33.202 66.2469 29.7587C65.8968 28.4421 64.9081 27.1052 63.8576 26.4976C62.6835 25.8292 60.6031 25.6469 59.3878 26.1127ZM62.1068 30.2448C62.4569 30.8929 62.3333 31.4601 61.7978 31.8044C60.7267 32.4931 59.5114 31.1765 60.3559 30.265C60.8297 29.7384 61.8184 29.7384 62.1068 30.2448Z" fill="#0047BB"/>
</svg>
