<svg width="11" height="17" viewBox="0 0 11 17" fill="none" xmlns="http://www.w3.org/2000/svg">
<path d="M9.20529 3.43757C9.1407 3.54678 9.06894 3.63051 8.99 3.68876C8.91824 3.73973 8.82854 3.76521 8.7209 3.76521C8.5989 3.76521 8.45538 3.70332 8.29033 3.57955C8.12527 3.45577 7.91716 3.32107 7.666 3.17545C7.42201 3.02255 7.1242 2.88421 6.77256 2.76043C6.42811 2.63666 6.0083 2.57477 5.51315 2.57477C5.04669 2.57477 4.63406 2.6403 4.27526 2.77136C3.92362 2.89513 3.62581 3.06624 3.38182 3.28467C3.14501 3.5031 2.9656 3.76157 2.84361 4.06009C2.72161 4.35133 2.66062 4.66806 2.66062 5.01026C2.66062 5.44712 2.76467 5.81117 2.97278 6.10241C3.18806 6.38637 3.46794 6.63029 3.81239 6.83415C4.16402 7.03802 4.55871 7.21641 4.99646 7.36931C5.44138 7.51493 5.89348 7.66783 6.35276 7.82801C6.81921 7.98819 7.27131 8.17022 7.70905 8.37409C8.15398 8.57067 8.54867 8.82187 8.89312 9.12767C9.24476 9.43347 9.52463 9.80844 9.73274 10.2526C9.94802 10.6967 10.0557 11.2428 10.0557 11.8908C10.0557 12.5752 9.94085 13.2196 9.71121 13.8239C9.48157 14.421 9.14429 14.9415 8.69937 15.3857C8.26162 15.8298 7.71982 16.1793 7.07396 16.4342C6.43528 16.689 5.7069 16.8164 4.88882 16.8164C3.88415 16.8164 2.97278 16.6344 2.1547 16.2703C1.33661 15.899 0.636934 15.4003 0.0556641 14.7741L0.658463 13.7693C0.715872 13.6892 0.784046 13.6237 0.862984 13.5727C0.949098 13.5145 1.04239 13.4853 1.14285 13.4853C1.23614 13.4853 1.3402 13.5254 1.45502 13.6055C1.57701 13.6783 1.71336 13.7729 1.86406 13.8894C2.01476 14.0059 2.18699 14.1334 2.38074 14.2717C2.5745 14.41 2.79337 14.5375 3.03736 14.6539C3.28853 14.7704 3.57199 14.8687 3.88774 14.9488C4.20349 15.0216 4.55871 15.058 4.9534 15.058C5.44856 15.058 5.88989 14.9889 6.27741 14.8505C6.66492 14.7122 6.99144 14.5192 7.25696 14.2717C7.52965 14.0169 7.73776 13.7147 7.88128 13.3652C8.02481 13.0157 8.09657 12.6262 8.09657 12.1966C8.09657 11.7233 7.98893 11.3375 7.77364 11.0389C7.56553 10.7331 7.28925 10.4783 6.94479 10.2744C6.60034 10.0706 6.20565 9.89946 5.76072 9.76112C5.3158 9.6155 4.8637 9.46988 4.40443 9.32426C3.94515 9.17136 3.49305 8.99661 3.04813 8.80002C2.60321 8.60344 2.20852 8.3486 1.86406 8.03552C1.5196 7.72244 1.23973 7.3329 1.02445 6.86692C0.816339 6.39365 0.712284 5.81117 0.712284 5.11948C0.712284 4.56612 0.816339 4.03097 1.02445 3.51402C1.23973 2.99707 1.54831 2.53836 1.95017 2.13791C2.35922 1.73745 2.85796 1.41709 3.44641 1.17682C4.04203 0.936543 4.72377 0.816406 5.49162 0.816406C6.35276 0.816406 7.13496 0.954746 7.83823 1.23142C8.54867 1.5081 9.17299 1.90856 9.71121 2.43279L9.20529 3.43757Z" fill="#0047BB"/>
</svg>
