<svg width="16" height="15" viewBox="0 0 16 15" fill="none" xmlns="http://www.w3.org/2000/svg">
<path d="M11.1296 9.37916H10.4712L10.2379 9.15416C11.0546 8.20416 11.5462 6.97083 11.5462 5.62916C11.5462 2.63749 9.12122 0.212494 6.12956 0.212494C3.13789 0.212494 0.712891 2.63749 0.712891 5.62916C0.712891 8.62083 3.13789 11.0458 6.12956 11.0458C7.47122 11.0458 8.70456 10.5542 9.65456 9.73749L9.87956 9.97083V10.6292L14.0462 14.7875L15.2879 13.5458L11.1296 9.37916ZM6.12956 9.37916C4.05456 9.37916 2.37956 7.70416 2.37956 5.62916C2.37956 3.55416 4.05456 1.87916 6.12956 1.87916C8.20456 1.87916 9.87956 3.55416 9.87956 5.62916C9.87956 7.70416 8.20456 9.37916 6.12956 9.37916Z" fill="#0047BB"/>
</svg>
