<svg width="14" height="19" viewBox="0 0 14 19" fill="none" xmlns="http://www.w3.org/2000/svg">
<path d="M6.99967 4.50001V7.00001L10.333 3.66668L6.99967 0.333344V2.83334C3.31634 2.83334 0.333008 5.81668 0.333008 9.50001C0.333008 10.8083 0.716341 12.025 1.36634 13.05L2.58301 11.8333C2.20801 11.1417 1.99967 10.3417 1.99967 9.50001C1.99967 6.74168 4.24134 4.50001 6.99967 4.50001ZM12.633 5.95001L11.4163 7.16668C11.783 7.86668 11.9997 8.65834 11.9997 9.50001C11.9997 12.2583 9.75801 14.5 6.99967 14.5V12L3.66634 15.3333L6.99967 18.6667V16.1667C10.683 16.1667 13.6663 13.1833 13.6663 9.50001C13.6663 8.19168 13.283 6.97501 12.633 5.95001Z" fill="black"/>
</svg>
