<svg width="365" height="97" viewBox="0 0 365 97" fill="none" xmlns="http://www.w3.org/2000/svg">
<path d="M106.92 29.78C106.72 30.1 106.507 30.34 106.28 30.5C106.067 30.66 105.787 30.74 105.44 30.74C105.133 30.74 104.8 30.6467 104.44 30.46C104.093 30.26 103.693 30.04 103.24 29.8C102.8 29.56 102.293 29.3467 101.72 29.16C101.147 28.96 100.493 28.86 99.76 28.86C98.4933 28.86 97.5467 29.1333 96.92 29.68C96.3067 30.2133 96 30.94 96 31.86C96 32.4467 96.1867 32.9333 96.56 33.32C96.9333 33.7067 97.42 34.04 98.02 34.32C98.6333 34.6 99.3267 34.86 100.1 35.1C100.887 35.3267 101.687 35.5867 102.5 35.88C103.313 36.16 104.107 36.4933 104.88 36.88C105.667 37.2667 106.36 37.76 106.96 38.36C107.573 38.96 108.067 39.6933 108.44 40.56C108.813 41.4133 109 42.4467 109 43.66C109 45.0067 108.767 46.2667 108.3 47.44C107.833 48.6133 107.153 49.64 106.26 50.52C105.38 51.3867 104.287 52.0733 102.98 52.58C101.687 53.0733 100.213 53.32 98.56 53.32C97.6533 53.32 96.7267 53.2267 95.78 53.04C94.8467 52.8533 93.94 52.5933 93.06 52.26C92.18 51.9133 91.3533 51.5067 90.58 51.04C89.8067 50.5733 89.1333 50.0533 88.56 49.48L90.56 46.32C90.72 46.0933 90.9267 45.9067 91.18 45.76C91.4467 45.6 91.7333 45.52 92.04 45.52C92.44 45.52 92.84 45.6467 93.24 45.9C93.6533 46.1533 94.1133 46.4333 94.62 46.74C95.14 47.0467 95.7333 47.3267 96.4 47.58C97.0667 47.8333 97.8533 47.96 98.76 47.96C99.9867 47.96 100.94 47.6933 101.62 47.16C102.3 46.6133 102.64 45.7533 102.64 44.58C102.64 43.9 102.453 43.3467 102.08 42.92C101.707 42.4933 101.213 42.14 100.6 41.86C100 41.58 99.3133 41.3333 98.54 41.12C97.7667 40.9067 96.9733 40.6733 96.16 40.42C95.3467 40.1533 94.5533 39.8333 93.78 39.46C93.0067 39.0733 92.3133 38.5733 91.7 37.96C91.1 37.3333 90.6133 36.56 90.24 35.64C89.8667 34.7067 89.68 33.56 89.68 32.2C89.68 31.1067 89.9 30.04 90.34 29C90.78 27.96 91.4267 27.0333 92.28 26.22C93.1333 25.4067 94.18 24.76 95.42 24.28C96.66 23.7867 98.08 23.54 99.68 23.54C100.573 23.54 101.44 23.6133 102.28 23.76C103.133 23.8933 103.94 24.1 104.7 24.38C105.46 24.6467 106.167 24.9733 106.82 25.36C107.487 25.7333 108.08 26.16 108.6 26.64L106.92 29.78Z" fill="#0047BB"/>
<path d="M134.708 29.22H126.508V53H119.748V29.22H111.548V23.86H134.708V29.22Z" fill="#0047BB"/>
<path d="M166.879 38.42C166.879 40.5267 166.513 42.4867 165.779 44.3C165.059 46.1133 164.039 47.6933 162.719 49.04C161.399 50.3733 159.806 51.42 157.939 52.18C156.086 52.94 154.026 53.32 151.759 53.32C149.493 53.32 147.426 52.94 145.559 52.18C143.693 51.42 142.093 50.3733 140.759 49.04C139.439 47.6933 138.413 46.1133 137.679 44.3C136.959 42.4867 136.599 40.5267 136.599 38.42C136.599 36.3133 136.959 34.3533 137.679 32.54C138.413 30.7267 139.439 29.1533 140.759 27.82C142.093 26.4867 143.693 25.44 145.559 24.68C147.426 23.92 149.493 23.54 151.759 23.54C154.026 23.54 156.086 23.9267 157.939 24.7C159.806 25.46 161.399 26.5067 162.719 27.84C164.039 29.1733 165.059 30.7467 165.779 32.56C166.513 34.3733 166.879 36.3267 166.879 38.42ZM159.959 38.42C159.959 36.98 159.773 35.6867 159.399 34.54C159.026 33.38 158.486 32.4 157.779 31.6C157.086 30.8 156.233 30.1867 155.219 29.76C154.206 29.3333 153.053 29.12 151.759 29.12C150.453 29.12 149.286 29.3333 148.259 29.76C147.246 30.1867 146.386 30.8 145.679 31.6C144.986 32.4 144.453 33.38 144.079 34.54C143.706 35.6867 143.519 36.98 143.519 38.42C143.519 39.8733 143.706 41.18 144.079 42.34C144.453 43.4867 144.986 44.46 145.679 45.26C146.386 46.06 147.246 46.6733 148.259 47.1C149.286 47.5133 150.453 47.72 151.759 47.72C153.053 47.72 154.206 47.5133 155.219 47.1C156.233 46.6733 157.086 46.06 157.779 45.26C158.486 44.46 159.026 43.4867 159.399 42.34C159.773 41.18 159.959 39.8733 159.959 38.42Z" fill="#0047BB"/>
<path d="M181.137 37.56C182.057 37.56 182.838 37.4467 183.478 37.22C184.131 36.98 184.664 36.6533 185.077 36.24C185.491 35.8267 185.791 35.3467 185.978 34.8C186.164 34.24 186.258 33.64 186.258 33C186.258 31.72 185.837 30.72 184.997 30C184.171 29.28 182.884 28.92 181.137 28.92H178.417V37.56H181.137ZM195.497 53H189.378C188.244 53 187.431 52.5733 186.938 51.72L182.098 43.26C181.871 42.9 181.618 42.64 181.338 42.48C181.058 42.3067 180.657 42.22 180.137 42.22H178.417V53H171.658V23.86H181.137C183.244 23.86 185.038 24.08 186.518 24.52C188.011 24.9467 189.224 25.5467 190.158 26.32C191.104 27.0933 191.791 28.0067 192.217 29.06C192.644 30.1133 192.857 31.26 192.857 32.5C192.857 33.4467 192.731 34.34 192.478 35.18C192.224 36.02 191.851 36.8 191.357 37.52C190.864 38.2267 190.251 38.86 189.518 39.42C188.798 39.98 187.964 40.44 187.018 40.8C187.458 41.0267 187.871 41.3133 188.258 41.66C188.644 41.9933 188.991 42.3933 189.298 42.86L195.497 53Z" fill="#0047BB"/>
<path d="M211.144 41.92V53H204.384V41.92L193.824 23.86H199.784C200.371 23.86 200.831 24 201.164 24.28C201.511 24.5467 201.797 24.8933 202.024 25.32L206.144 33.8C206.491 34.4667 206.804 35.0933 207.084 35.68C207.364 36.2533 207.611 36.82 207.824 37.38C208.024 36.8067 208.251 36.2333 208.504 35.66C208.771 35.0733 209.077 34.4533 209.424 33.8L213.504 25.32C213.597 25.1467 213.711 24.9733 213.844 24.8C213.977 24.6267 214.131 24.4733 214.304 24.34C214.491 24.1933 214.697 24.08 214.924 24C215.164 23.9067 215.424 23.86 215.704 23.86H221.704L211.144 41.92Z" fill="#0047BB"/>
<path d="M245.721 29.22H237.521V53H230.761V29.22H222.561V23.86H245.721V29.22Z" fill="#0047BB"/>
<path d="M256.756 29.06V35.86H265.916V40.86H256.756V47.8H268.716V53H249.956V23.86H268.716V29.06H256.756Z" fill="#0047BB"/>
<path d="M291.246 47.6V53H273.686V23.86H280.446V47.6H291.246Z" fill="#0047BB"/>
<path d="M313.061 47.6V53H295.501V23.86H302.261V47.6H313.061Z" fill="#0047BB"/>
<path d="M324.117 29.06V35.86H333.277V40.86H324.117V47.8H336.077V53H317.317V23.86H336.077V29.06H324.117Z" fill="#0047BB"/>
<path d="M350.527 37.56C351.447 37.56 352.227 37.4467 352.867 37.22C353.52 36.98 354.053 36.6533 354.467 36.24C354.88 35.8267 355.18 35.3467 355.367 34.8C355.553 34.24 355.647 33.64 355.647 33C355.647 31.72 355.227 30.72 354.387 30C353.56 29.28 352.273 28.92 350.527 28.92H347.807V37.56H350.527ZM364.887 53H358.767C357.633 53 356.82 52.5733 356.327 51.72L351.487 43.26C351.26 42.9 351.007 42.64 350.727 42.48C350.447 42.3067 350.047 42.22 349.527 42.22H347.807V53H341.047V23.86H350.527C352.633 23.86 354.427 24.08 355.907 24.52C357.4 24.9467 358.613 25.5467 359.547 26.32C360.493 27.0933 361.18 28.0067 361.607 29.06C362.033 30.1133 362.247 31.26 362.247 32.5C362.247 33.4467 362.12 34.34 361.867 35.18C361.613 36.02 361.24 36.8 360.747 37.52C360.253 38.2267 359.64 38.86 358.907 39.42C358.187 39.98 357.353 40.44 356.407 40.8C356.847 41.0267 357.26 41.3133 357.647 41.66C358.033 41.9933 358.38 42.3933 358.687 42.86L364.887 53Z" fill="#0047BB"/>
<path d="M36.0119 0.0464314C33.2833 0.311956 32.3311 0.451706 30.4836 0.815055C26.2486 1.63958 21.2604 3.61004 17.6364 5.88796C10.3886 10.4298 4.66137 17.5151 2.06067 25.1594C-0.127891 31.6019 -0.59687 38.6872 0.767431 45.1716C1.52064 48.7492 3.48182 53.5286 5.443 56.6171C5.88356 57.2879 6.23885 57.9168 6.23885 57.9866C6.23885 58.1823 2.33069 66.6511 0.639528 70.1169C0.355299 70.6899 0.127915 71.2908 0.127915 71.4585C0.127915 71.8778 0.739008 72.5765 1.19378 72.6883C1.83329 72.842 7.84474 71.752 12.3214 70.6619C13.6004 70.3545 14.6805 70.1309 14.7231 70.1588C14.7941 70.2427 14.3536 71.4306 11.2129 79.4801C10.0333 82.5127 8.35635 86.8589 7.50367 89.1229C6.63677 91.3868 5.75566 93.7346 5.52827 94.3355C5.01666 95.6492 5.00245 95.9566 5.40037 96.4457C5.8125 96.9488 6.23885 97.1026 6.83573 96.9349C7.61736 96.7252 10.8007 93.3154 18.9297 83.994C24.0174 78.1665 26.6749 75.2038 27.8829 74.0578L28.6503 73.3032L30.6257 73.7923C33.8801 74.5889 35.5713 74.7845 39.2805 74.7985C42.5918 74.7985 43.8992 74.6867 46.6705 74.1417C52.7103 72.9818 58.5228 70.3126 63.2979 66.5253C66.1402 64.2754 69.3378 60.7537 71.3842 57.6373C74.5392 52.8299 76.5288 47.0862 77.1683 40.9372C77.3814 38.9108 77.2535 33.796 76.9551 31.8255C75.9461 25.3691 73.2601 19.3039 69.2525 14.3708C67.675 12.4562 64.8043 9.61928 63.0137 8.20781C57.798 4.12712 51.2608 1.402 44.2545 0.36785C42.4781 0.102326 37.3904 -0.0933182 36.0119 0.0464314ZM42.0659 2.89732C53.1793 3.98737 62.7152 9.54941 68.7551 18.4794C71.7963 22.9933 73.7007 28.1361 74.3118 33.5724C74.5249 35.4171 74.4823 39.4698 74.2407 41.4962C73.587 47.0582 71.7537 51.9774 68.6272 56.6031C63.0563 64.8483 54.501 70.1588 44.1835 71.752C41.7249 72.1293 36.6514 72.1014 34.2354 71.6821C33.2548 71.5144 32.2174 71.3048 31.919 71.2349L31.3789 71.0812L31.7058 70.8296C31.8905 70.6899 32.8001 70.1449 33.738 69.6278C40.6022 65.8126 43.2029 63.9819 46.3152 60.8096C52.753 54.2414 54.6431 46.8486 52.0708 38.4217C51.9287 37.9745 51.9145 37.7509 52.014 37.709C52.4545 37.5692 54.302 36.2276 54.8278 35.6686C55.1547 35.3192 55.4531 35.0397 55.4816 35.0397C55.5242 35.0397 55.5526 35.6546 55.5526 36.4233C55.5526 38.0024 55.7658 38.4496 56.6043 38.6173C57.2438 38.7291 57.727 38.4636 58.6934 37.4714C60.1714 35.9202 61.1662 34.2012 61.7488 32.105C62.1468 30.6935 62.1183 27.3675 61.692 25.8861C60.953 23.3147 59.2476 20.7434 57.1727 19.1223C56.3627 18.4654 55.9363 18.0182 55.6237 17.4453C53.5914 13.7279 50.1949 11.4919 45.1072 10.4997C43.1744 10.1224 39.3373 10.1503 37.362 10.5696C32.2742 11.6317 27.9398 14.2729 24.6143 18.3397C22.9231 20.408 21.0756 23.6921 20.095 26.3753C19.2423 28.7231 18.1765 33.8379 18.1765 35.5987C18.1765 35.9062 17.9207 36.3254 17.2243 37.1639C14.6662 40.3083 12.5061 44.1794 8.76849 52.3687C8.22845 53.5566 7.73105 54.5907 7.65999 54.6606C7.47524 54.8423 5.55669 50.9293 4.84612 48.9588C4.17818 47.1141 3.52446 44.5567 3.15496 42.3766C2.81388 40.2943 2.81388 34.8301 3.15496 32.6221C4.36293 24.8799 7.61736 18.4375 12.9751 13.1549C16.8406 9.36773 21.5304 6.47491 26.6039 4.76997C31.3647 3.16284 37.362 2.43615 42.0659 2.89732ZM44.1692 13.1829C47.58 13.672 50.3797 15.0416 51.9145 16.9561C51.9449 16.994 51.9744 17.0307 52.0031 17.0664C52.5336 17.7258 52.7808 18.0331 52.7589 18.3198C52.7407 18.5573 52.538 18.7806 52.1588 19.1782C52.1047 19.235 52.0469 19.2954 51.9855 19.3598C49.328 22.1269 47.8784 25.7324 47.6368 30.2184C47.5089 32.8037 47.85 34.7742 49.0864 38.4357C50.2091 41.7757 50.5786 44.375 50.2944 46.9185C49.8112 51.4603 47.7647 55.4152 43.9703 59.1605C41.3554 61.7599 38.371 63.8561 33.8091 66.3576C28.0677 69.4741 27.2576 70.2427 15.4621 83.6726C13.4725 85.9366 11.5397 88.1586 11.156 88.6058C10.7723 89.053 10.4454 89.3884 10.417 89.3604C10.3886 89.3325 10.7439 88.3403 11.1986 87.1524C12.364 84.1198 17.6507 70.648 18.0912 69.5579L18.4607 68.6495L20.2798 67.9648C23.9321 66.5952 28.4229 64.2474 31.3931 62.1512C37.6462 57.7491 41.9238 52.0193 42.9613 46.639C43.2597 45.1436 43.2455 42.6421 42.9613 41.2446C41.9949 36.6049 38.7689 33.1811 33.9938 31.7277C32.8285 31.3783 32.5727 31.3504 30.043 31.3504C27.6129 31.3364 27.215 31.3783 26.1349 31.6718C24.6427 32.091 22.98 32.7758 21.9994 33.3628L21.2604 33.8099L21.3598 33.0553C22.0562 27.8147 24.3869 22.6859 27.755 19.0244C31.9048 14.5245 38.1294 12.3025 44.1692 13.1829ZM55.51 21.3583C56.9596 22.4623 58.3807 24.6004 58.9065 26.4591C59.0344 26.9203 59.1623 27.9125 59.205 28.6811C59.2902 30.3442 59.0487 31.6159 58.3949 33.0274L57.9402 33.9916L57.5991 33.0972C56.8601 31.1687 55.5242 29.855 53.1509 28.6811C51.4313 27.8287 51.005 27.5352 51.005 27.1439C51.005 26.5989 51.8008 24.6004 52.4261 23.5523C52.9804 22.6579 54.4726 20.7853 54.6573 20.7853C54.6999 20.7853 55.0837 21.0508 55.51 21.3583ZM51.9145 31.1966C52.6251 31.546 53.3641 31.9513 53.5488 32.091L53.9041 32.3566L53.3499 33.0693C52.6251 33.9916 51.1044 35.1795 50.9481 34.9279C50.7207 34.5646 50.3228 30.5678 50.5218 30.5678C50.5644 30.5678 51.2039 30.8473 51.9145 31.1966ZM32.8996 34.341C34.7897 34.8161 37.0351 36.1717 38.1294 37.4714C38.9678 38.4776 39.7495 40.0428 40.0763 41.3984C40.4885 43.1312 40.4032 45.5908 39.8632 47.3936C38.7405 51.083 35.6566 55.2336 31.6774 58.4478C27.8971 61.4804 22.5962 64.3033 16.6701 66.4135C13.0888 67.6992 4.10713 69.9213 4.10713 69.516C4.10713 69.3343 12.1224 51.9355 13.8704 48.316C17.5085 40.8254 20.3366 37.2757 24.2163 35.3472C25.3106 34.8161 27.215 34.2292 28.4087 34.0615C29.6309 33.9078 31.6347 34.0196 32.8996 34.341Z" fill="#0047BB"/>
<path d="M40.9745 18.0168C39.2833 18.6457 38.3169 20.4485 38.7291 22.1394C39.0702 23.509 40.1502 24.5291 41.5856 24.8086C44.0726 25.2978 46.3606 22.9081 45.7069 20.5323C45.4653 19.6239 44.7832 18.7016 44.0584 18.2823C43.2483 17.8212 41.813 17.6954 40.9745 18.0168ZM42.8504 20.8677C43.092 21.3149 43.0067 21.7062 42.6372 21.9438C41.8982 22.4189 41.0598 21.5106 41.6424 20.8817C41.9693 20.5183 42.6514 20.5183 42.8504 20.8677Z" fill="#0047BB"/>
<path fill-rule="evenodd" clip-rule="evenodd" d="M36.0119 0.0464314C33.2833 0.311956 32.3311 0.451706 30.4836 0.815055C26.2486 1.63958 21.2604 3.61004 17.6364 5.88796C10.3886 10.4298 4.66137 17.5151 2.06067 25.1594C-0.127891 31.6019 -0.59687 38.6872 0.767431 45.1716C1.52064 48.7492 3.48182 53.5286 5.443 56.6171C5.88356 57.2879 6.23885 57.9168 6.23885 57.9866C6.23885 58.1823 2.33069 66.6511 0.639528 70.1169C0.355299 70.6899 0.127915 71.2908 0.127915 71.4585C0.127915 71.8778 0.739008 72.5765 1.19378 72.6883C1.83329 72.842 7.84474 71.752 12.3214 70.6619C13.6004 70.3545 14.6805 70.1309 14.7231 70.1588C14.7941 70.2427 14.3536 71.4306 11.2129 79.4801C10.0333 82.5127 8.35635 86.8589 7.50367 89.1229C6.8163 90.918 6.11999 92.7658 5.74772 93.7537C5.65049 94.0117 5.57536 94.2111 5.52827 94.3355C5.01666 95.6492 5.00245 95.9566 5.40037 96.4457C5.8125 96.9488 6.23885 97.1026 6.83573 96.9349C7.61736 96.7252 10.8007 93.3154 18.9297 83.994C24.0174 78.1665 26.6749 75.2038 27.8829 74.0578L28.6503 73.3032L30.6257 73.7923C33.8801 74.5889 35.5713 74.7845 39.2805 74.7985C42.5918 74.7985 43.8992 74.6867 46.6705 74.1417C52.7103 72.9818 58.5228 70.3126 63.2979 66.5253C66.1402 64.2754 69.3378 60.7537 71.3842 57.6373C74.5392 52.8299 76.5288 47.0862 77.1683 40.9372C77.3814 38.9108 77.2535 33.796 76.9551 31.8255C75.9461 25.3691 73.2601 19.3039 69.2525 14.3708C67.675 12.4562 64.8043 9.61928 63.0137 8.20781C57.798 4.12712 51.2608 1.402 44.2545 0.36785C42.4781 0.102326 37.3904 -0.0933182 36.0119 0.0464314ZM51.9145 16.9561C50.3797 15.0416 47.58 13.672 44.1692 13.1829C38.1294 12.3025 31.9048 14.5245 27.755 19.0244C24.3869 22.6859 22.0562 27.8147 21.3598 33.0553L21.2604 33.8099L21.9994 33.3628C22.98 32.7758 24.6427 32.091 26.1349 31.6718C27.215 31.3783 27.6129 31.3364 30.043 31.3504C32.5727 31.3504 32.8285 31.3783 33.9938 31.7277C38.7689 33.1811 41.9949 36.6049 42.9613 41.2446C43.2455 42.6421 43.2597 45.1436 42.9613 46.639C41.9238 52.0193 37.6462 57.7491 31.3931 62.1512C28.4229 64.2474 23.9321 66.5952 20.2798 67.9648L18.4607 68.6495L18.0912 69.5579C17.6507 70.648 12.364 84.1198 11.1986 87.1524C10.7439 88.3403 10.3886 89.3325 10.417 89.3604C10.4454 89.3884 10.7723 89.053 11.156 88.6058C11.5397 88.1586 13.4725 85.9366 15.4621 83.6726C27.2576 70.2427 28.0677 69.4741 33.8091 66.3576C38.371 63.8561 41.3554 61.7599 43.9703 59.1605C47.7647 55.4152 49.8112 51.4603 50.2944 46.9185C50.5786 44.375 50.2091 41.7757 49.0864 38.4357C47.85 34.7742 47.5089 32.8037 47.6368 30.2184C47.8784 25.7324 49.328 22.1269 51.9855 19.3598L52.1588 19.1782C52.538 18.7806 52.7407 18.5573 52.7589 18.3198C52.7808 18.0331 52.5336 17.7258 52.0031 17.0664L51.9145 16.9561ZM58.9065 26.4591C58.3807 24.6004 56.9596 22.4623 55.51 21.3583C55.0837 21.0508 54.6999 20.7853 54.6573 20.7853C54.4726 20.7853 52.9804 22.6579 52.4261 23.5523C51.8008 24.6004 51.005 26.5989 51.005 27.1439C51.005 27.5352 51.4313 27.8287 53.1509 28.6811C55.5242 29.855 56.8601 31.1687 57.5991 33.0972L57.9402 33.9916L58.3949 33.0274C59.0487 31.6159 59.2902 30.3442 59.205 28.6811C59.1623 27.9125 59.0344 26.9203 58.9065 26.4591ZM53.5488 32.091C53.3641 31.9513 52.6251 31.546 51.9145 31.1966C51.2039 30.8473 50.5644 30.5678 50.5218 30.5678C50.3228 30.5678 50.7207 34.5646 50.9481 34.9279C51.1044 35.1795 52.6251 33.9916 53.3499 33.0693L53.9041 32.3566L53.5488 32.091ZM38.1294 37.4714C37.0351 36.1717 34.7897 34.8161 32.8996 34.341C31.6347 34.0196 29.6309 33.9078 28.4087 34.0615C27.215 34.2292 25.3106 34.8161 24.2163 35.3472C20.3366 37.2757 17.5085 40.8254 13.8704 48.316C12.1224 51.9355 4.10713 69.3343 4.10713 69.516C4.10713 69.9213 13.0888 67.6992 16.6701 66.4135C22.5962 64.3033 27.8971 61.4804 31.6774 58.4478C35.6566 55.2336 38.7405 51.083 39.8632 47.3936C40.4032 45.5908 40.4885 43.1312 40.0763 41.3984C39.7495 40.0428 38.9678 38.4776 38.1294 37.4714Z" fill="#0047BB"/>
</svg>
