<svg width="280" height="169" viewBox="0 0 280 169" fill="none" xmlns="http://www.w3.org/2000/svg">
<path d="M131.53 65.1948C137.658 67.4705 141.16 73.994 139.666 80.1127C138.431 85.0686 134.517 88.7599 129.316 89.7713C120.304 91.5415 112.014 82.8942 114.383 74.2973C115.258 71.0102 117.73 67.6728 120.356 66.1555C123.291 64.487 128.492 64.0318 131.53 65.1948ZM124.733 75.5109C123.858 77.1292 124.167 78.5451 125.506 79.4049C128.183 81.124 131.221 77.8373 129.11 75.5616C127.926 74.2466 125.454 74.2466 124.733 75.5109Z" fill="#0047BB" fill-opacity="0.2"/>
<path fill-rule="evenodd" clip-rule="evenodd" d="M149.512 0.168015C159.399 1.12883 162.849 1.63452 169.544 2.94932C184.889 5.93291 202.964 13.0631 216.095 21.3059C242.357 37.7408 263.11 63.3794 272.533 91.0407C280.463 114.353 282.163 139.992 277.219 163.456C274.49 176.402 267.384 193.696 260.277 204.872C258.681 207.299 257.394 209.575 257.394 209.828C257.394 210.536 271.555 241.181 277.683 253.722C278.713 255.795 279.537 257.97 279.537 258.577C279.537 260.094 277.322 262.622 275.674 263.027C273.357 263.583 251.575 259.639 235.354 255.694C230.719 254.582 226.806 253.773 226.651 253.874C226.394 254.177 227.99 258.476 239.37 287.603C243.645 298.577 249.721 314.304 252.811 322.496C255.301 328.992 257.824 335.678 259.173 339.253C259.526 340.187 259.798 340.908 259.969 341.358C261.822 346.112 261.874 347.224 260.432 348.994C258.939 350.815 257.394 351.371 255.231 350.764C252.399 350.006 240.864 337.667 211.409 303.937C192.974 282.85 183.344 272.129 178.967 267.982L176.187 265.252L169.029 267.022C157.237 269.904 151.109 270.612 137.669 270.663C125.67 270.663 120.933 270.258 110.891 268.286C89.0061 264.089 67.9447 254.43 50.6423 240.726C40.3433 232.584 28.7569 219.841 21.3419 208.564C9.90985 191.168 2.70062 170.384 0.383392 148.134C-0.388763 140.801 0.0746765 122.293 1.15591 115.162C4.81198 91.7995 14.5446 69.8522 29.066 52.0015C34.782 45.0735 45.1839 34.8079 51.6721 29.7004C70.571 14.9342 94.2583 5.07322 119.645 1.33109C126.082 0.370272 144.517 -0.337677 149.512 0.168015ZM91.8896 61.3566C97.4509 54.4289 107.596 49.4729 119.954 47.7031C141.839 44.5173 164.394 52.5577 179.431 68.8409C191.635 82.0902 200.08 100.649 202.604 119.612L202.964 122.343L200.286 120.725C196.733 118.601 190.708 116.123 185.301 114.606C181.387 113.544 179.946 113.393 171.14 113.443C161.974 113.443 161.047 113.544 156.825 114.808C139.522 120.068 127.833 132.457 124.331 149.246C123.301 154.303 123.25 163.355 124.331 168.766C128.091 188.235 143.59 208.968 166.248 224.898C177.011 232.483 193.283 240.978 206.517 245.934L213.108 248.412L214.447 251.699C216.043 255.644 235.199 304.392 239.422 315.366C241.07 319.664 242.357 323.255 242.254 323.356C242.151 323.457 240.967 322.243 239.577 320.625C238.186 319.007 231.183 310.966 223.974 302.774C181.233 254.177 178.298 251.396 157.494 240.119C140.964 231.067 130.15 223.482 120.675 214.076C106.926 200.523 99.5109 186.212 97.76 169.777C96.7303 160.573 98.0691 151.168 102.137 139.082C106.617 125.832 107.853 118.702 107.39 109.347C106.514 93.1141 101.262 80.0674 91.6324 70.0545L91.0044 69.3974C89.6304 67.9587 88.896 67.1506 88.83 66.2912C88.7506 65.2538 89.6464 64.1418 91.5686 61.7557L91.8896 61.3566ZM66.5544 95.7437C68.4596 89.0179 73.6089 81.2811 78.8615 77.2862C80.4062 76.1735 81.7969 75.2128 81.9512 75.2128C82.6205 75.2128 88.0274 81.9889 90.0359 85.2253C92.3016 89.0179 95.1852 96.2496 95.1852 98.2217C95.1852 99.6377 93.6405 100.7 87.4096 103.784C78.81 108.032 73.9695 112.786 71.2917 119.764L70.0557 123.001L68.4082 119.512C66.0391 114.404 65.164 109.802 65.4728 103.784C65.6275 101.003 66.0909 97.4126 66.5544 95.7437ZM85.9678 116.123C86.6371 115.618 89.3148 114.151 91.8896 112.887C94.4645 111.623 96.7817 110.611 96.9361 110.611C97.6571 110.611 96.2153 125.074 95.3914 126.389C94.825 127.299 89.3148 123.001 86.6885 119.663L84.6804 117.084L85.9678 116.123ZM141.839 135.592C145.805 130.889 153.941 125.984 160.789 124.265C165.373 123.102 172.633 122.697 177.062 123.253C181.387 123.86 188.288 125.984 192.253 127.906C206.311 134.884 216.559 147.729 229.741 174.834C236.075 187.932 265.118 250.89 265.118 251.548C265.118 253.014 232.573 244.973 219.596 240.321C198.123 232.685 178.916 222.47 165.218 211.497C150.8 199.866 139.625 184.847 135.557 171.496C133.6 164.973 133.291 156.073 134.785 149.802C135.969 144.897 138.802 139.233 141.839 135.592Z" fill="#0047BB" fill-opacity="0.2"/>
</svg>
