<svg width="325" height="203" viewBox="0 0 325 203" fill="none" xmlns="http://www.w3.org/2000/svg">
<path d="M106.566 50.915C96.3888 54.682 90.5735 65.4802 93.0539 75.6081C95.1065 83.8116 101.605 89.9217 110.243 91.5958C125.209 94.526 138.977 80.2124 135.043 65.9821C133.589 60.5411 129.485 55.0168 125.123 52.5053C120.248 49.7435 111.611 48.99 106.566 50.915ZM117.854 67.991C119.308 70.6696 118.795 73.0134 116.571 74.4366C112.124 77.2822 107.079 71.8418 110.585 68.0749C112.552 65.8982 116.656 65.8982 117.854 67.991Z" fill="#0047BB" fill-opacity="0.2"/>
<path fill-rule="evenodd" clip-rule="evenodd" d="M76.703 -56.7219C60.2836 -55.1315 54.5537 -54.2944 43.4363 -52.1181C17.952 -47.1794 -12.0647 -35.377 -33.8723 -21.7329C-77.4862 5.47126 -111.95 47.91 -127.6 93.697C-140.77 132.286 -143.592 174.724 -135.382 213.564C-130.849 234.993 -119.048 263.62 -107.247 282.119C-104.595 286.137 -102.457 289.904 -102.457 290.322C-102.457 291.494 -125.975 342.219 -136.152 362.978C-137.862 366.411 -139.23 370.01 -139.23 371.014C-139.23 373.526 -135.553 377.711 -132.816 378.38C-128.968 379.301 -92.794 372.772 -65.8555 366.243C-58.159 364.402 -51.6595 363.062 -51.4032 363.229C-50.9759 363.732 -53.6266 370.847 -72.5259 419.061C-79.6242 437.225 -89.7153 463.258 -94.8464 476.818C-98.9826 487.571 -103.173 498.638 -105.413 504.556C-105.998 506.101 -106.45 507.295 -106.733 508.04C-109.812 515.909 -109.898 517.75 -107.503 520.68C-105.023 523.693 -102.457 524.614 -98.8657 523.61C-94.1622 522.354 -75.0063 501.93 -26.0898 446.098C4.52567 411.193 20.5173 393.447 27.7865 386.583L32.4043 382.063L44.2914 384.993C63.8748 389.764 74.0517 390.936 96.372 391.02C116.298 391.02 124.165 390.35 140.842 387.086C177.186 380.138 212.163 364.151 240.898 341.466C258.001 327.99 277.243 306.896 289.557 288.229C308.543 259.435 320.515 225.032 324.363 188.201C325.646 176.064 324.876 145.428 323.08 133.625C317.009 94.953 300.846 58.6244 276.73 29.0766C267.237 17.6088 249.962 0.616501 239.187 -7.83776C207.802 -32.2798 168.464 -48.6025 126.303 -54.7967C115.614 -56.3871 84.9982 -57.5589 76.703 -56.7219ZM172.398 44.5618C163.162 33.0945 146.315 24.891 125.79 21.9615C89.4452 16.6882 51.9884 29.9972 27.0168 56.9502C6.74913 78.8815 -7.27594 109.601 -11.4666 140.991L-12.0647 145.511L-7.61774 142.833C-1.71693 139.317 8.28842 135.215 17.2678 132.704C23.7673 130.946 26.1617 130.695 40.7849 130.779C56.0075 130.779 57.5468 130.946 64.559 133.039C93.2934 141.744 112.706 162.252 118.521 190.042C120.232 198.413 120.317 213.396 118.521 222.353C112.278 254.579 86.5375 288.899 48.9092 315.266C31.0359 327.822 4.01236 341.885 -17.9655 350.088L-28.912 354.189L-31.1355 359.63C-33.7862 366.16 -65.5991 446.851 -72.612 465.016C-75.3482 472.131 -77.4862 478.074 -77.3153 478.241C-77.1444 478.409 -75.1773 476.4 -72.8683 473.721C-70.5594 471.043 -58.9287 457.734 -46.9562 444.173C24.0237 363.732 28.8985 359.128 63.4476 340.461C90.899 325.478 108.858 312.923 124.593 297.353C147.426 274.92 159.741 251.231 162.649 224.027C164.359 208.792 162.135 193.223 155.379 173.218C147.939 151.287 145.887 139.484 146.656 123.999C148.11 97.1291 156.833 75.5333 172.825 58.9592L173.868 57.8715C176.149 55.49 177.369 54.1525 177.479 52.7299C177.611 51.0127 176.123 49.172 172.931 45.2224L172.398 44.5618ZM214.472 101.482C211.308 90.3488 202.757 77.5422 194.034 70.9296C191.468 69.0877 189.159 67.4975 188.902 67.4975C187.791 67.4975 178.812 78.7138 175.476 84.071C171.713 90.3488 166.925 102.319 166.925 105.584C166.925 107.927 169.49 109.685 179.838 114.791C194.119 121.822 202.158 129.691 206.605 141.242L208.657 146.599L211.394 140.824C215.328 132.369 216.781 124.752 216.268 114.791C216.011 110.187 215.242 104.244 214.472 101.482ZM182.232 135.215C181.121 134.378 176.674 131.951 172.398 129.858C168.121 127.766 164.273 126.092 164.017 126.092C162.819 126.092 165.214 150.031 166.582 152.207C167.523 153.714 176.674 146.599 181.035 141.075L184.37 136.806L182.232 135.215ZM89.4452 167.442C82.8602 159.657 69.3484 151.538 57.9747 148.692C50.3631 146.767 38.3051 146.097 30.9505 147.018C23.7673 148.022 12.3075 151.538 5.72255 154.719C-17.6237 166.27 -34.6419 187.531 -56.5343 232.398C-67.053 254.078 -115.285 358.291 -115.285 359.379C-115.285 361.807 -61.2376 348.497 -39.687 340.796C-4.02647 328.157 27.8719 311.249 50.62 293.084C74.565 273.832 93.1225 248.971 99.8784 226.873C103.128 216.075 103.641 201.342 101.161 190.964C99.1942 182.844 94.4903 173.469 89.4452 167.442Z" fill="#0047BB" fill-opacity="0.2"/>
</svg>
