<svg width="20" height="20" viewBox="0 0 20 20" fill="none" xmlns="http://www.w3.org/2000/svg">
<path d="M9.99967 5V7.5L13.333 4.16667L9.99967 0.833333V3.33333C6.31634 3.33333 3.33301 6.31667 3.33301 10C3.33301 11.3083 3.71634 12.525 4.36634 13.55L5.58301 12.3333C5.20801 11.6417 4.99967 10.8417 4.99967 10C4.99967 7.24167 7.24134 5 9.99967 5ZM15.633 6.45L14.4163 7.66667C14.783 8.36667 14.9997 9.15833 14.9997 10C14.9997 12.7583 12.758 15 9.99967 15V12.5L6.66634 15.8333L9.99967 19.1667V16.6667C13.683 16.6667 16.6663 13.6833 16.6663 10C16.6663 8.69167 16.283 7.475 15.633 6.45Z" fill="#4A4A4A"/>
</svg>
