<svg width="21" height="20" viewBox="0 0 21 20" fill="none" xmlns="http://www.w3.org/2000/svg">
<path d="M9.5 5.83366H11.1667V7.50033H9.5V5.83366ZM9.5 9.16699H11.1667V14.167H9.5V9.16699ZM10.3333 1.66699C5.73333 1.66699 2 5.40033 2 10.0003C2 14.6003 5.73333 18.3337 10.3333 18.3337C14.9333 18.3337 18.6667 14.6003 18.6667 10.0003C18.6667 5.40033 14.9333 1.66699 10.3333 1.66699ZM10.3333 16.667C6.65833 16.667 3.66667 13.6753 3.66667 10.0003C3.66667 6.32533 6.65833 3.33366 10.3333 3.33366C14.0083 3.33366 17 6.32533 17 10.0003C17 13.6753 14.0083 16.667 10.3333 16.667Z" fill="#0047BB"/>
</svg>
